<svg width="19" height="24" viewBox="0 0 19 24" fill="none" xmlns="http://www.w3.org/2000/svg">
<path d="M11.6923 2.92308H13.1538V4.38462H11.6923V2.92308ZM14.6154 2.92308H16.0769V4.38462H14.6154V2.92308ZM11.6923 5.84615H13.1538V7.30769H11.6923V5.84615ZM14.6154 5.84615H16.0769V7.30769H14.6154V5.84615ZM11.6923 8.76923H13.1538V10.2308H11.6923V8.76923ZM14.6154 8.76923H16.0769V10.2308H14.6154V8.76923ZM11.6923 11.6923H13.1538V13.1538H11.6923V11.6923ZM14.6154 11.6923H16.0769V13.1538H14.6154V11.6923ZM11.6923 14.6154H13.1538V16.0769H11.6923V14.6154ZM14.6154 14.6154H16.0769V16.0769H14.6154V14.6154ZM17.5385 0H10.2308C9.84315 0 9.4714 0.153983 9.19731 0.428075C8.92321 0.702166 8.76923 1.07391 8.76923 1.46154V5.84615H1.46154C1.07391 5.84615 0.702166 6.00014 0.428075 6.27423C0.153983 6.54832 0 6.92007 0 7.30769V21.9231C0 22.3107 0.153983 22.6824 0.428075 22.9565C0.702166 23.2306 1.07391 23.3846 1.46154 23.3846H17.5385C17.9261 23.3846 18.2978 23.2306 18.5719 22.9565C18.846 22.6824 19 22.3107 19 21.9231V1.46154C19 1.07391 18.846 0.702166 18.5719 0.428075C18.2978 0.153983 17.9261 0 17.5385 0ZM5.84615 21.9231H4.38462V19H5.84615V21.9231ZM7.30769 21.9231V17.5385H2.92308V21.9231H1.46154V7.30769H8.76923V21.9231H7.30769ZM14.6154 21.9231H13.1538V19H14.6154V21.9231ZM17.5385 21.9231H16.0769V17.5385H11.6923V21.9231H10.2308V1.46154H17.5385V21.9231ZM2.92308 8.76923H4.38462V10.2308H2.92308V8.76923ZM5.84615 8.76923H7.30769V10.2308H5.84615V8.76923ZM2.92308 11.6923H4.38462V13.1538H2.92308V11.6923ZM5.84615 11.6923H7.30769V13.1538H5.84615V11.6923ZM2.92308 14.6154H4.38462V16.0769H2.92308V14.6154ZM5.84615 14.6154H7.30769V16.0769H5.84615V14.6154Z" fill="#272727"/>
</svg>
