<svg width="166" height="53" viewBox="0 0 166 53" fill="none" xmlns="http://www.w3.org/2000/svg">
<g clip-path="url(#clip0_5139_2867)">
<path d="M83.3742 52.0417C74.8238 52.0146 66.6423 50.2384 58.8481 46.6455C52.3381 43.6444 46.5415 39.5697 41.4002 34.5232C41.2973 34.4223 41.1785 34.3296 41.1043 34.2089C40.9996 34.0398 40.8898 33.8566 40.8533 33.6651C40.7367 33.033 41.2227 32.6159 41.824 32.8223C41.9844 32.8843 42.1371 32.9651 42.2791 33.0632C46.5745 35.7916 51.1207 38.0866 55.8532 39.9155C60.2189 41.6113 64.7202 42.9198 69.3068 43.8263C71.7346 44.3069 74.1782 44.6742 76.6377 44.9283C79.0561 45.1749 81.4813 45.31 83.9138 45.3196C86.0023 45.3275 88.0878 45.2759 90.1685 45.1054C94.4702 44.7547 98.7368 44.0479 102.926 42.9918C107.616 41.8143 112.19 40.2028 116.593 38.1774C116.85 38.0528 117.123 37.9666 117.405 37.9212C117.927 37.8504 118.369 38.0401 118.654 38.507C118.938 38.9739 118.901 39.4687 118.605 39.9059C118.431 40.1638 118.188 40.3868 117.944 40.5809C115.782 42.3146 113.467 43.811 111.033 45.1159C106.315 47.6457 101.33 49.4288 96.1282 50.5995C93.9663 51.0869 91.7803 51.4553 89.5796 51.7033C87.5191 51.9358 85.4473 52.0488 83.3742 52.0417Z" fill="#080808"/>
<path d="M44.642 9.78411C44.8179 9.68051 44.9526 9.60619 45.0821 9.52182C46.1051 8.87177 47.168 8.31134 48.3459 8.01102C49.4268 7.73518 50.5197 7.67223 51.6178 7.87638C52.6442 8.06741 53.4854 8.57582 54.0979 9.45362C54.164 9.54761 54.2326 9.63941 54.3295 9.77318C54.4655 9.69318 54.5976 9.62062 54.7246 9.53931C55.6854 8.92729 56.6784 8.3861 57.7795 8.08141C58.9934 7.74567 60.2244 7.62414 61.4683 7.86283C63.1935 8.19507 64.3975 9.46587 64.6695 11.2385C64.7313 11.6413 64.7629 12.0483 64.7638 12.456C64.7707 16.1281 64.772 19.8001 64.7677 23.4722C64.7677 24.3518 64.666 24.4567 63.815 24.4571C62.9431 24.4571 62.071 24.4571 61.1985 24.4571C60.4586 24.4549 60.3025 24.2958 60.2977 23.5264C60.2926 22.827 60.2977 22.1275 60.2977 21.4281C60.2977 18.9369 60.2977 16.4451 60.2977 13.9528C60.2977 13.6179 60.2939 13.2813 60.263 12.9473C60.1695 11.9327 59.5548 11.3032 58.573 11.2508C57.3784 11.1874 56.2516 11.489 55.1655 11.9777C54.9841 12.0595 54.9039 12.1863 54.9159 12.386C54.9232 12.5172 54.9159 12.6483 54.9159 12.7795C54.9159 16.2907 54.9159 19.8025 54.9159 23.3148C54.9159 23.4897 54.9189 23.6646 54.9073 23.8394C54.8786 24.274 54.7199 24.4436 54.2914 24.4514C53.4914 24.4637 52.6906 24.4571 51.8893 24.4576C51.632 24.4576 51.3746 24.4641 51.1172 24.4519C50.6694 24.4305 50.4983 24.2556 50.4738 23.8097C50.4665 23.6641 50.47 23.5181 50.47 23.3726C50.47 20.1528 50.469 16.9324 50.467 13.7115C50.4673 13.4058 50.4448 13.1005 50.3996 12.7983C50.2538 11.8475 49.6584 11.291 48.7152 11.2508C47.5064 11.1996 46.3646 11.4899 45.2756 12.0166C45.1138 12.0953 45.0293 12.2011 45.0396 12.3869C45.0469 12.5181 45.0396 12.6492 45.0396 12.7804C45.0396 16.365 45.0396 19.9496 45.0396 23.5343C45.0396 24.3496 44.9234 24.4676 44.1239 24.4689C43.252 24.4707 42.3798 24.4707 41.5074 24.4689C41.3786 24.4717 41.2497 24.4679 41.1213 24.4576C40.767 24.4204 40.6203 24.2713 40.5766 23.905C40.565 23.7888 40.5606 23.672 40.5633 23.5553C40.5633 18.7615 40.5633 13.9674 40.5633 9.17297C40.5633 8.36949 40.6984 8.23659 41.4889 8.23528C42.1323 8.23528 42.7757 8.23222 43.4191 8.23528C44.0312 8.23878 44.2302 8.39397 44.4057 8.98806C44.4794 9.24117 44.5537 9.4886 44.642 9.78411Z" fill="#080808"/>
<path d="M125.328 9.08989V8.54782C125.328 6.36206 125.328 4.1763 125.328 1.99054C125.324 1.81549 125.33 1.64036 125.345 1.46595C125.384 1.10618 125.533 0.950988 125.884 0.897655C125.998 0.885286 126.112 0.881486 126.227 0.886289C127.113 0.886289 128 0.886289 128.886 0.886289C129.015 0.881506 129.145 0.888528 129.272 0.907272C129.602 0.967599 129.737 1.11973 129.775 1.4629C129.785 1.59377 129.788 1.72512 129.784 1.85633C129.784 9.06789 129.784 16.2794 129.784 23.491V23.5347C129.781 24.3185 129.655 24.4484 128.89 24.4501C128.125 24.4519 127.346 24.4545 126.573 24.4501C126.052 24.4457 125.857 24.2884 125.716 23.7804C125.653 23.5592 125.596 23.3367 125.517 23.042C125.354 23.1697 125.235 23.2606 125.118 23.3537C123.267 24.8291 121.193 25.181 118.971 24.5227C117.248 24.0121 116.101 22.7815 115.332 21.1667C114.755 19.9566 114.493 18.6609 114.413 17.3298C114.319 15.7503 114.433 14.1862 114.903 12.6654C115.273 11.4654 115.866 10.3922 116.732 9.49426C118.005 8.17231 119.582 7.67526 121.367 7.74565C122.701 7.79854 123.923 8.1828 125.016 8.97273C125.075 9.0125 125.136 9.0487 125.199 9.08115C125.207 9.08902 125.224 9.08508 125.328 9.08989ZM125.328 16.2592C125.328 14.9779 125.32 13.6962 125.333 12.4149C125.336 12.1089 125.227 11.9384 124.959 11.809C124.026 11.3569 122.997 11.1503 121.966 11.2079C120.716 11.2695 119.895 11.9392 119.418 13.0876C119.342 13.2758 119.279 13.469 119.228 13.666C118.867 15.0369 118.86 16.4292 119.014 17.8268C119.076 18.4361 119.235 19.031 119.486 19.5877C119.969 20.6368 120.764 21.2283 121.901 21.359C122.976 21.4823 123.965 21.2279 124.917 20.7352C125.229 20.5734 125.339 20.3667 125.334 20.0165C125.318 18.7623 125.328 17.5094 125.328 16.257V16.2592Z" fill="#080808"/>
<path d="M5.46487 23.3658V23.8947C5.46487 25.9639 5.46487 28.0331 5.46487 30.1023C5.46487 30.9622 5.3439 31.0828 4.49375 31.0837C3.6436 31.0846 2.80675 31.0837 1.96303 31.0837C1.84858 31.0867 1.73405 31.0838 1.61988 31.0749C1.18537 31.0312 1.01379 30.8489 0.98205 30.4052C0.975187 30.3038 0.979055 30.2011 0.979055 30.0992L0.96875 9.29077C0.96875 9.17405 0.968763 9.05733 0.971766 8.94105C0.992355 8.45537 1.17465 8.2521 1.65806 8.24161C2.43015 8.22674 3.20223 8.22806 3.97432 8.24161C4.45044 8.24948 4.66361 8.43876 4.79958 8.91351C4.86778 9.15045 4.93083 9.38913 4.99989 9.62563C5.00632 9.64792 5.04064 9.66147 5.09726 9.70781C5.20664 9.62038 5.32503 9.52421 5.44384 9.42978C7.31829 7.93866 9.42223 7.43069 11.7355 7.98981C13.4246 8.39767 14.5943 9.51547 15.4243 11.0293C16.0201 12.1148 16.3088 13.2995 16.4392 14.5235C16.6039 16.0688 16.5567 17.6089 16.1981 19.1267C15.8365 20.6567 15.1828 22.0342 14.0702 23.1485C12.731 24.4919 11.0994 25.0029 9.24893 24.8385C7.92395 24.7209 6.71392 24.2847 5.65917 23.4396C5.63043 23.4169 5.58583 23.4112 5.46487 23.3658ZM5.46487 16.2459C5.46487 17.5573 5.47001 18.8662 5.46058 20.1763C5.46058 20.4224 5.52921 20.578 5.75011 20.6974C6.70663 21.2137 7.72321 21.465 8.80112 21.4086C10.0665 21.3426 11.0016 20.7459 11.497 19.5289C11.6182 19.2184 11.713 18.8978 11.7801 18.5706C12.0327 17.4074 12.0121 16.2275 11.9298 15.0503C11.8787 14.3241 11.735 13.6076 11.4395 12.9371C11.0655 12.0855 10.4474 11.5198 9.54705 11.3196C8.23708 11.0276 6.99917 11.2759 5.81187 11.8783C5.54636 12.0129 5.45371 12.1895 5.458 12.4903C5.4743 13.7419 5.46487 14.9939 5.46487 16.2459Z" fill="#080808"/>
<path d="M165.099 16.332C165.103 17.6068 164.978 18.8636 164.552 20.071C163.621 22.7114 161.799 24.2965 159.089 24.7922C157.549 25.0738 156.012 25.0287 154.51 24.5522C152.263 23.8392 150.784 22.304 150.003 20.0601C149.422 18.3919 149.381 16.6616 149.52 14.924C149.602 13.9045 149.834 12.9131 150.259 11.9762C151.313 9.65539 153.101 8.30678 155.557 7.88362C156.907 7.65149 158.263 7.6716 159.599 8.01214C162.158 8.66394 163.803 10.3155 164.624 12.844C164.969 13.9084 165.099 14.9725 165.099 16.332ZM160.547 16.3429C160.547 15.9792 160.572 15.6133 160.541 15.2523C160.486 14.5847 160.376 13.9255 160.137 13.2947C159.715 12.1765 158.977 11.4329 157.775 11.2764C156.456 11.105 155.187 11.5413 154.527 13.049C154.412 13.315 154.318 13.5901 154.247 13.8717C153.928 15.1137 153.929 16.3775 154.041 17.6439C154.1 18.3123 154.235 18.9654 154.497 19.5879C155.172 21.1927 156.513 21.6753 158.04 21.3772C159.014 21.1866 159.647 20.5396 160.039 19.633C160.492 18.5838 160.572 17.4691 160.547 16.3429Z" fill="#080808"/>
<path d="M71.6023 17.5479C71.6305 18.1945 71.7759 18.8302 72.0312 19.4228C72.3997 20.2858 73.0293 20.8654 73.8997 21.1714C74.9634 21.5474 76.0602 21.5587 77.1634 21.4722C78.135 21.3961 79.0833 21.181 80.0261 20.9384C80.7673 20.7478 80.9698 20.9061 80.9767 21.6816C80.981 22.1336 80.9702 22.5856 80.9767 23.0368C80.9874 23.5823 80.7708 23.9272 80.2428 24.1218C78.3569 24.8241 76.3422 25.094 74.3423 24.9121C73.4536 24.8321 72.5888 24.656 71.7644 24.3058C69.8977 23.5137 68.622 22.1279 68.0181 20.1756C67.2353 17.6436 67.2533 15.0801 68.1515 12.5823C69.1466 9.81596 71.1476 8.25751 74.0107 7.86101C75.2975 7.68615 76.5796 7.69839 77.8381 8.0538C79.3579 8.48264 80.5589 9.33946 81.2074 10.8516C81.7252 12.0594 81.765 13.3197 81.3876 14.5674C81.0328 15.7359 80.2192 16.5096 79.1412 17.0102C77.9887 17.5457 76.7615 17.7271 75.5137 17.7839C74.3127 17.8386 73.1117 17.7953 71.9308 17.5308C71.861 17.5156 71.7902 17.5054 71.7189 17.5002C71.6962 17.5002 71.6696 17.5208 71.6023 17.5479ZM71.6319 14.7138C71.7605 14.7501 71.8283 14.7741 71.8961 14.7864C72.9114 14.9704 73.9357 15.0548 74.963 14.9691C75.4442 14.9305 75.9192 14.8345 76.3785 14.6832C77.0099 14.4712 77.3702 13.979 77.4855 13.3057C77.6387 12.4157 77.2874 11.5685 76.5942 11.2135C75.6175 10.7126 73.8859 10.7729 72.9264 11.6747C72.0685 12.4835 71.788 13.5466 71.6323 14.7138H71.6319Z" fill="#080808"/>
<path d="M137.16 17.4635C137.016 18.9253 137.92 20.4602 139.215 21.0018C139.956 21.3117 140.736 21.3909 141.524 21.3987C142.761 21.4114 143.969 21.1854 145.159 20.8663C145.324 20.8226 145.489 20.7675 145.657 20.7399C145.965 20.6888 146.147 20.8138 146.229 21.1251C146.253 21.2237 146.265 21.325 146.264 21.4267C146.268 21.9076 146.261 22.3884 146.267 22.8693C146.274 23.3777 146.075 23.7069 145.581 23.8927C144.488 24.3045 143.367 24.5821 142.209 24.6726C140.852 24.7788 139.499 24.7631 138.17 24.3858C135.85 23.727 134.302 22.2328 133.617 19.891C132.901 17.439 132.924 14.959 133.803 12.5551C134.795 9.8448 136.773 8.32133 139.591 7.95193C140.995 7.76745 142.391 7.80374 143.733 8.31127C145.411 8.94514 146.504 10.1237 146.829 11.9545C146.973 12.7308 146.95 13.5295 146.762 14.2959C146.471 15.4548 145.749 16.2631 144.737 16.8239C143.949 17.2611 143.096 17.4967 142.213 17.6156C140.895 17.7983 139.559 17.8019 138.24 17.6265C137.986 17.592 137.735 17.5334 137.481 17.4919C137.375 17.4744 137.266 17.4744 137.16 17.4635ZM137.157 14.7322C137.318 14.7759 137.425 14.8244 137.535 14.8327C138.446 14.8987 139.356 14.9984 140.268 15.0014C140.757 15.0014 141.265 14.8917 141.732 14.7317C142.566 14.4467 142.929 13.7827 142.88 12.8083C142.837 11.9427 142.39 11.3617 141.572 11.1257C141.38 11.0682 141.183 11.0298 140.984 11.0111C139.959 10.9268 139.008 11.1156 138.269 11.9064C137.547 12.678 137.29 13.655 137.157 14.7322Z" fill="#080808"/>
<path d="M96.6564 20.3095C96.7521 20.0302 96.819 19.8593 96.8709 19.6835C97.8835 16.1805 98.8951 12.6774 99.9056 9.17439C99.9459 9.03494 99.9867 8.89505 100.039 8.76041C100.175 8.41069 100.432 8.22577 100.798 8.22402C101.898 8.2179 102.999 8.21353 104.101 8.22402C104.511 8.22839 104.67 8.43954 104.579 8.85483C104.507 9.1513 104.414 9.44215 104.301 9.7252C102.573 14.3476 100.843 18.9695 99.1108 23.5908C99.0571 23.7416 98.9915 23.8878 98.9148 24.0279C98.7616 24.2972 98.5352 24.4599 98.2186 24.4603C97.1892 24.4623 96.1597 24.4632 95.1303 24.4629C94.6872 24.4629 94.4161 24.2063 94.2604 23.8072C94.076 23.3338 93.8988 22.8577 93.7208 22.3816C92.1243 18.1127 90.5285 13.8432 88.9334 9.57307C88.8444 9.34298 88.7689 9.10767 88.7074 8.86838C88.61 8.46664 88.7705 8.22927 89.1702 8.2249C90.2992 8.21222 91.4281 8.21615 92.5588 8.2249C93.0306 8.22796 93.2803 8.5274 93.4047 8.95581C93.5908 9.59755 93.7693 10.2415 93.9507 10.8841C94.7888 13.8474 95.6276 16.8107 96.4668 19.774C96.5067 19.9213 96.5676 20.063 96.6564 20.3095Z" fill="#080808"/>
<path d="M23.9724 10.6268C24.1118 10.486 24.2216 10.3776 24.3289 10.267C25.0654 9.50507 25.8499 8.81436 26.8515 8.42661C27.6295 8.12541 28.4347 8.05591 29.2535 8.11493C29.6824 8.14596 29.8433 8.31557 29.8497 8.75579C29.8626 9.70222 29.8643 10.6491 29.8497 11.5973C29.8416 12.0865 29.6353 12.2709 29.1471 12.2753C28.9481 12.2753 28.7486 12.2425 28.5492 12.229C27.2058 12.1331 25.8576 12.323 24.5901 12.7868C24.1835 12.9345 24.1822 12.9389 24.1817 13.3739C24.1817 16.7239 24.1817 20.0738 24.1817 23.4236C24.1872 23.598 24.1773 23.7725 24.1522 23.9451C24.0865 24.314 23.9424 24.4412 23.5722 24.4548C23.2154 24.4679 22.8576 24.4609 22.4999 24.4614C21.8428 24.4614 21.1856 24.4657 20.5268 24.4614C19.8881 24.4557 19.6972 24.2694 19.6968 23.6343C19.6948 18.7845 19.6948 13.9346 19.6968 9.08453C19.6968 8.43929 19.8834 8.25 20.5139 8.24476C21.214 8.23864 21.9145 8.23864 22.6157 8.24476C23.1901 8.24913 23.4118 8.42792 23.5486 8.99622C23.6576 9.4478 23.7502 9.90375 23.8553 10.3562C23.8721 10.4314 23.9175 10.5026 23.9724 10.6268Z" fill="#080808"/>
<path d="M116.952 35.2624C115.545 35.3935 113.924 35.5404 112.304 35.6995C111.792 35.7494 111.284 35.8276 110.774 35.8927C110.745 35.8962 110.717 35.898 110.688 35.8997C110.412 35.9133 110.123 35.9334 109.985 35.6195C109.854 35.3214 110.016 35.077 110.196 34.8676C110.34 34.7067 110.503 34.5632 110.679 34.4401C112.263 33.2864 114.038 32.5918 115.929 32.1796C117.929 31.7393 119.986 31.6279 122.022 31.8495C122.903 31.9386 123.773 32.1247 124.615 32.4047C125.384 32.667 125.835 33.1238 125.896 33.9972C125.953 34.84 125.928 35.6864 125.82 36.524C125.507 39.055 124.792 41.5174 123.705 43.8153C122.866 45.5857 121.818 47.208 120.378 48.5404C120.212 48.6934 120.017 48.8403 119.81 48.9146C119.349 49.0799 119.04 48.7918 119.133 48.3026C119.171 48.1046 119.249 47.9131 119.319 47.7225C120.041 45.7453 120.741 43.7606 121.289 41.7239C121.613 40.5165 121.914 39.3021 121.964 38.0427C121.976 37.7374 121.967 37.4316 121.937 37.1277C121.874 36.4947 121.552 36.052 120.97 35.7996C120.424 35.5618 119.849 35.4499 119.267 35.394C118.572 35.3271 117.872 35.3118 116.952 35.2624Z" fill="#080808"/>
<path d="M36.611 16.3739V23.3246C36.611 23.4414 36.611 23.5581 36.611 23.6744C36.5965 24.2719 36.424 24.449 35.8321 24.4521C34.8599 24.4564 33.8876 24.4564 32.9153 24.4521C32.32 24.449 32.1484 24.2737 32.1265 23.6783C32.1231 23.5764 32.1265 23.4746 32.1265 23.3723C32.1265 18.6956 32.1265 14.019 32.1265 9.34232C32.1265 9.19675 32.1222 9.05031 32.1334 8.90517C32.1686 8.44004 32.3517 8.24944 32.8051 8.22496C33.0625 8.21053 33.3198 8.21971 33.5772 8.21928C34.2918 8.21928 35.0064 8.21928 35.7219 8.21928C36.4373 8.21928 36.6119 8.3972 36.6123 9.11893C36.6126 11.537 36.6122 13.9553 36.611 16.3739Z" fill="#080808"/>
<path d="M111.349 16.3965V23.3909C111.349 23.5077 111.352 23.6244 111.349 23.7407C111.329 24.2985 111.173 24.4624 110.617 24.4668C109.631 24.4738 108.645 24.4738 107.658 24.4668C107.057 24.462 106.901 24.3011 106.895 23.6799C106.887 22.7037 106.892 21.7276 106.892 20.751C106.892 17.0497 106.892 13.3485 106.892 9.6473C106.892 9.51615 106.892 9.38501 106.892 9.25386C106.896 8.37694 107.004 8.26153 107.847 8.2589C108.733 8.25584 109.62 8.25278 110.507 8.2589C111.221 8.26502 111.349 8.40317 111.35 9.13889C111.35 11.559 111.35 13.9782 111.349 16.3965Z" fill="#080808"/>
<path d="M34.3864 5.63397C33.6182 5.6261 32.9032 5.45605 32.3769 4.83485C31.7262 4.06678 31.6477 3.17367 31.9531 2.24866C32.2409 1.37741 32.9105 0.944634 33.7718 0.780265C34.2515 0.688122 34.7451 0.703036 35.2186 0.82398C36.574 1.16714 37.1736 2.36975 36.9317 3.71662C36.7263 4.85977 35.8671 5.55747 34.6438 5.63484C34.558 5.63878 34.4722 5.63397 34.3864 5.63397Z" fill="#080808"/>
<path d="M109.102 0.677734C109.41 0.728444 109.727 0.749426 110.026 0.835108C111.164 1.15991 111.841 2.19028 111.661 3.54021C111.49 4.83243 110.589 5.59483 109.217 5.62149C108.846 5.62906 108.476 5.57652 108.122 5.46586C107.223 5.17822 106.675 4.5426 106.582 3.57562C106.54 3.17181 106.566 2.76353 106.659 2.36864C106.905 1.39729 107.743 0.791833 108.839 0.717517C108.925 0.711834 109.011 0.717517 109.096 0.717517L109.102 0.677734Z" fill="#080808"/>
</g>
<defs>
<clipPath id="clip0_5139_2867">
<rect width="164.123" height="51.3667" fill="white" transform="translate(0.96875 0.677246)"/>
</clipPath>
</defs>
</svg>
