<svg width="154" height="34" viewBox="0 0 154 34" fill="none" xmlns="http://www.w3.org/2000/svg">
<g clip-path="url(#clip0_5139_2953)">
<path d="M78.8461 12.9302C78.858 15.7613 78.8753 18.5923 78.8796 21.4235C78.8827 23.2808 78.6435 25.091 77.8394 26.7952C76.474 29.691 74.1873 31.4556 71.1689 32.292C68.2277 33.1068 65.3104 32.999 62.4594 31.8689C61.5009 31.489 60.587 31.0082 59.796 30.3241C59.501 30.069 59.4166 29.8077 59.6231 29.4951C60.0966 28.7797 60.6036 28.0863 61.1005 27.387C61.3067 27.0969 61.5708 27.104 61.8231 27.2997C63.0159 28.2254 64.4221 28.542 65.8654 28.7193C67.606 28.9338 69.3147 28.759 70.9236 28.0221C73.6571 26.7691 74.6932 24.7626 74.5994 21.8903C74.5948 21.7526 74.474 21.5107 74.3944 21.5054C74.2117 21.4928 73.9799 21.5458 73.8412 21.661C73.3346 22.0826 72.8777 22.5648 72.3667 22.9803C70.8282 24.2311 69.0472 24.7876 67.0839 24.754C65.1033 24.7206 63.2343 24.2482 61.5331 23.2077C58.6833 21.465 56.8753 18.9506 56.261 15.6437C55.6868 12.553 56.1762 9.61524 57.9265 6.9817C60.1619 3.61845 63.3118 1.85241 67.3531 1.82529C69.5064 1.81053 71.4032 2.56538 73.041 3.97169C73.383 4.2655 73.6871 4.60541 74.0341 4.89255C74.1603 4.99656 74.3725 5.06979 74.5232 5.04064C74.6288 5.02024 74.7477 4.81192 74.7732 4.67148C74.8653 4.15631 74.9225 3.63464 74.9895 3.11514C75.0808 2.40008 75.2897 2.2088 75.9963 2.20393C76.6439 2.19931 77.2914 2.19437 77.9387 2.19577C78.5951 2.19839 78.835 2.43973 78.8381 3.10719C78.854 6.38062 78.8678 9.65405 78.8794 12.9275L78.8461 12.9302ZM61.6276 10.0944C61.7283 10.1178 61.8377 10.1233 61.9284 10.1676C63.4004 10.8862 64.9551 11.4509 66.245 12.5143C66.3879 12.6322 66.5577 12.7176 66.7149 12.8183C66.7043 12.686 66.6575 12.6047 66.5881 12.5534C65.1545 11.4846 64.0315 10.104 62.8531 8.7803C62.7823 8.70108 62.5808 8.6145 62.5573 8.64025C62.4578 8.74901 62.3258 8.91241 62.3461 9.03144C62.3945 9.31128 62.2914 9.48341 62.0572 9.53951C61.745 9.61622 61.6623 9.82437 61.6355 10.0969C61.5699 10.279 61.5072 10.4621 61.4388 10.643C61.3778 10.8041 61.3133 10.9639 61.2452 11.1221C61.183 11.2643 61.0578 11.4096 61.0719 11.5416C61.0804 11.6233 61.2941 11.6883 61.4205 11.7505C61.4702 11.775 61.5331 11.7722 61.59 11.7815C63.2324 12.0375 64.867 12.3249 66.4026 13.0075C66.4672 13.0364 66.5452 13.0345 66.6169 13.0468C66.5438 12.9325 66.448 12.8809 66.3513 12.831C65.421 12.3464 64.4753 11.8885 63.565 11.369C62.8944 10.9872 62.2713 10.5222 61.6276 10.0944ZM73.3652 9.84487C73.2565 9.69453 73.1772 9.46552 73.033 9.41037C72.7496 9.30385 72.5465 9.21443 72.6182 8.85298C72.6327 8.77975 72.5451 8.66163 72.4729 8.60681C72.4414 8.58414 72.31 8.65564 72.2571 8.71447C71.993 9.00766 71.7447 9.31504 71.4822 9.60918C70.7882 10.3863 70.1817 11.2464 69.3242 11.8675C68.9882 12.1112 68.6851 12.4008 68.3669 12.6698C68.4895 12.6755 68.6098 12.6349 68.7043 12.5559C69.661 11.8182 70.6638 11.1563 71.7562 10.6373C72.2987 10.38 72.8329 10.1053 73.3705 9.83852C73.0224 10.1045 72.679 10.3771 72.3252 10.6349C71.3339 11.3588 70.3509 12.095 69.1976 12.5545C68.9678 12.646 68.7489 12.7661 68.5252 12.8741C68.5399 12.9165 68.5548 12.9592 68.5698 13.0006C70.2444 12.1943 72.0315 11.8101 73.8367 11.4835C72.9927 11.8593 72.1464 12.2319 71.2702 12.5081C70.4031 12.7803 69.5061 12.9549 68.6221 13.1724L68.6328 13.2579C68.7523 13.2574 68.8717 13.261 68.9908 13.2564C69.7983 13.2194 70.6062 13.1416 71.4125 13.1531C72.2664 13.165 73.1187 13.2685 73.9724 13.3124C74.1082 13.3195 74.3609 13.2332 74.3663 13.1723C74.3807 13.0139 74.2863 12.8442 74.2385 12.6781C74.1906 12.5119 74.0763 12.3236 74.1201 12.1869C74.2802 11.6857 74.136 11.1924 73.7229 10.8672C73.6232 10.7888 73.5493 10.5711 73.5818 10.45C73.6574 10.1731 73.5608 10.0012 73.3652 9.84487ZM70.7892 7.40502C70.7661 7.51726 70.7635 7.63892 70.7164 7.73986C70.0366 9.19995 69.4823 10.7305 68.4531 12.0045C68.3223 12.1663 68.2285 12.3587 68.1177 12.5368C68.8404 11.8628 69.4754 11.1214 70.166 10.4374C70.8619 9.74769 71.6124 9.11445 72.3634 8.43431C72.1463 8.24135 72.022 8.04355 71.711 8.10346C71.6089 8.12322 71.3834 7.9382 71.3546 7.81414C71.2768 7.47772 71.0956 7.37173 70.7842 7.41106C70.7457 7.14543 70.5659 7.09076 70.3563 7.1645C70.0857 7.26067 69.9294 7.17485 69.7895 6.93658C69.6163 6.64396 68.9646 6.48482 68.6758 6.66533C68.4585 6.80088 68.3053 6.77207 68.1251 6.60429C67.8218 6.32267 67.1121 6.34561 66.8364 6.6436C66.6624 6.83282 66.4849 6.85955 66.2916 6.70767C66.086 6.54602 65.8946 6.56266 65.6902 6.70101C65.6374 6.73949 65.574 6.76046 65.5088 6.76102C65.2864 6.74389 65.1724 6.83212 65.1243 7.05788C65.0725 7.30044 64.8783 7.38774 64.6757 7.27613C64.3968 7.12303 64.2218 7.21785 64.0593 7.43712C63.8459 7.46146 63.6746 7.53916 63.6618 7.78726C63.6447 8.12186 63.4836 8.22706 63.157 8.17332C63.0551 8.15632 62.8946 8.25173 62.8305 8.3445C62.793 8.39914 62.866 8.5737 62.9362 8.65196C63.0818 8.81513 63.258 8.9503 63.4221 9.0966C64.4211 9.98859 65.5197 10.7753 66.2946 11.9039C66.4654 12.1529 66.6866 12.3667 66.8847 12.5968L66.9941 12.5219C65.7334 10.9838 64.9101 9.19805 64.0548 7.43016C64.3131 7.76709 64.5948 8.08807 64.8249 8.44349C65.3852 9.30851 65.9406 10.1783 66.4599 11.0685C66.7132 11.5018 66.8809 11.9854 67.0875 12.4455L67.2058 12.4041C66.4149 10.6968 66.0106 8.88329 65.7014 7.04119C66.0762 7.88512 66.4435 8.73322 66.7103 9.61245C66.9793 10.4983 67.1488 11.4147 67.362 12.3176L67.4176 12.3114L67.3941 6.71728L67.5648 6.71435C67.7792 8.58251 67.8949 10.4549 67.6856 12.3489C67.9449 10.4591 68.5271 8.6706 69.1949 6.90613C68.9513 8.77621 68.6718 10.6388 67.9225 12.3995C68.0429 12.2906 68.1345 12.1531 68.189 11.9996C68.8103 10.3275 69.8262 8.8815 70.7905 7.40501L70.7892 7.40502ZM61.7998 16.8853C63.325 15.7537 64.8202 14.5744 66.6147 13.8677C65.7295 14.1102 64.8831 14.4382 64.0149 14.6908C63.1534 14.9415 62.2702 15.116 61.3965 15.324C61.3866 15.2873 61.3764 15.2503 61.3662 15.2133C62.2136 14.8853 63.0469 14.5131 63.9115 14.2421C64.7761 13.9711 65.6632 13.8054 66.5409 13.5933L66.5264 13.4983C66.4145 13.4988 66.3003 13.486 66.1903 13.5016C64.5403 13.7354 62.8923 13.5592 61.2435 13.4841C61.1162 13.4783 60.9035 13.5004 60.8745 13.5702C60.8207 13.7003 60.8228 13.9043 60.8922 14.0248C61.0141 14.2362 60.9856 14.4112 60.9617 14.6416C60.9149 15.0941 60.9612 15.5663 61.3565 15.8979C61.5114 16.0284 61.5943 16.1554 61.5157 16.3784C61.4249 16.6322 61.4978 16.8382 61.807 16.8803C61.6704 17.1422 61.7772 17.27 62.0396 17.3228C62.2847 17.3718 62.4402 17.4915 62.3914 17.7794C62.3368 18.1015 62.8756 18.7049 63.2059 18.6687C63.515 18.6357 63.6463 18.7482 63.696 19.0534C63.7521 19.4016 64.4484 19.7643 64.7521 19.6167C65.0062 19.493 65.1425 19.6087 65.254 19.8182C65.4441 20.1773 66.0737 20.3828 66.4158 20.1767C66.6463 20.0383 66.8064 20.0636 66.9908 20.2605C67.2399 20.5265 68.0483 20.4841 68.2772 20.2069C68.4246 20.0286 68.5688 20.0191 68.7589 20.1387C69.0873 20.3454 69.8801 20.1159 70.037 19.7658C70.1367 19.5436 70.282 19.4797 70.5076 19.5395C70.912 19.6487 71.4306 19.3272 71.5194 18.9163C71.566 18.6991 71.6638 18.552 71.916 18.5731C72.316 18.6066 72.8256 18.0894 72.783 17.6879C72.7594 17.4687 72.828 17.3306 73.0443 17.2651C73.4958 17.1283 73.8272 16.5361 73.7155 16.0753C73.6631 15.8595 73.6995 15.6952 73.9146 15.578C74.1969 15.4238 74.4019 14.7707 74.2305 14.511C74.0539 14.2431 74.0748 14.0508 74.3129 13.8454C74.3736 13.7929 74.4063 13.6404 74.3746 13.5683C74.3469 13.505 74.21 13.4578 74.1226 13.4591C73.7768 13.4647 73.4312 13.4896 73.0855 13.5119C71.9566 13.5851 70.8293 13.7327 69.696 13.5598C69.3534 13.5074 69.0063 13.4838 68.6613 13.4469C68.6533 13.4919 68.645 13.5369 68.637 13.582C70.466 13.7415 72.171 14.3458 73.87 14.9747C72.0532 14.7343 70.2436 14.4685 68.542 13.7154C69.3468 14.1888 70.1862 14.5702 70.9831 15.0265C71.7801 15.4828 72.5276 16.0106 73.2977 16.5056C71.5559 15.8436 69.8674 15.0901 68.421 13.874L68.3119 14.018C69.8117 15.1401 71.0259 16.5371 72.1926 17.9821C70.7522 16.8407 69.3339 15.6768 68.2822 14.1223L68.148 14.2268C69.2482 15.6341 70.0693 17.1965 70.7621 18.8286C69.6663 17.425 68.6684 15.9622 67.9883 14.2899C68.6965 16.0086 69.0939 17.799 69.4228 19.6087C68.7 17.9483 68.0516 16.2645 67.8481 14.4343L67.7127 14.4624L67.7362 20.046L67.6192 20.0465C67.4011 18.1809 67.2263 16.3139 67.4699 14.4219C67.1966 16.2801 66.6102 18.0344 65.9784 19.7756C66.2193 17.9372 66.5172 16.1128 67.2837 14.3967L67.1212 14.3359C66.4949 16.1126 65.4609 17.6508 64.4142 19.1822C64.7761 18.3114 65.1226 17.4321 65.5624 16.6031C65.9965 15.7852 66.5249 15.018 67.012 14.2284L66.9151 14.1436C65.8144 15.6891 64.3743 16.8771 62.9532 18.0862C64.1102 16.6384 65.2461 15.1735 66.7683 14.0707C66.6183 14.0984 66.4779 14.1644 66.3604 14.2625C65.3971 15.0357 64.3387 15.6525 63.2344 16.1938C62.757 16.428 62.2788 16.6552 61.7998 16.8853ZM66.4731 13.3212C66.4755 13.2936 66.4779 13.266 66.4806 13.2381C66.4636 13.2233 66.449 13.199 66.4295 13.1949C66.3395 13.1754 66.2486 13.1612 66.158 13.146C65.1246 12.9701 64.0879 12.8211 63.097 12.4445C62.5048 12.2196 61.8895 12.0555 61.2817 11.8743C60.9859 11.7859 60.8343 11.9222 60.9449 12.202C61.0376 12.4377 61.0094 12.6057 60.8846 12.8153C60.7048 13.1154 60.8294 13.3145 61.1783 13.3032C61.6498 13.2882 62.1211 13.2387 62.5926 13.219C63.3155 13.1884 64.0418 13.1422 64.7655 13.1573C65.3358 13.1691 65.9042 13.2637 66.4731 13.3212Z" fill="#080808"/>
<path d="M130.03 8.76543C130.085 8.39075 130.128 8.09469 130.173 7.79926C130.199 7.62713 130.215 7.45061 130.258 7.28412C130.418 6.65557 130.59 6.51071 131.224 6.51976C131.821 6.52834 132.426 6.52643 133.016 6.60727C133.528 6.67639 133.703 6.92941 133.704 7.45178C133.713 10.7014 133.717 13.9511 133.717 17.2009C133.719 19.216 133.705 21.2315 133.726 23.2462C133.733 23.9798 133.53 24.2142 132.773 24.2753C132.118 24.3281 131.456 24.3002 130.797 24.2937C130.413 24.29 130.163 24.0667 130.072 23.7057C130.001 23.4275 130 23.132 129.955 22.8458C129.934 22.7144 129.883 22.5876 129.846 22.4588C129.728 22.5163 129.589 22.5508 129.495 22.6351C128.626 23.4102 127.658 24.0066 126.537 24.3326C124.183 25.0175 121.968 24.5846 119.903 23.3702C117.441 21.9211 115.981 19.71 115.527 16.8893C114.768 12.1724 117.644 7.72996 122.203 6.53835C124.592 5.91373 126.835 6.1929 128.849 7.71421C129.244 8.00843 129.59 8.36908 130.03 8.76543ZM129.807 15.4107C129.822 14.7042 129.659 13.9823 129.358 13.2901C128.198 10.621 125.267 9.29675 122.705 10.2826C120.435 11.1557 119.015 13.6561 119.344 16.2001C119.652 18.5849 121.297 20.4663 123.443 20.8903C126.751 21.5439 129.823 18.9238 129.806 15.4107L129.807 15.4107Z" fill="#080808"/>
<path d="M31.6994 9.1954C31.7606 8.7887 31.8011 8.48123 31.8507 8.17501C31.886 7.95722 31.9118 7.73568 31.976 7.5257C32.1093 7.08385 32.3004 6.93542 32.7594 6.9335C33.3478 6.93102 33.9428 6.90191 34.5231 6.97708C35.2239 7.06917 35.3703 7.29031 35.3721 8.00434C35.3817 12.6402 35.3902 17.2759 35.3975 21.9113C35.3986 22.5401 35.4053 23.1692 35.4007 23.7981C35.3967 24.3366 35.2393 24.5907 34.7227 24.6341C33.9315 24.7008 33.1326 24.6889 32.3373 24.6818C32.0424 24.6796 31.8479 24.4621 31.7722 24.1868C31.6988 23.9201 31.6793 23.6385 31.6276 23.3654C31.5955 23.2004 31.5489 23.0388 31.5086 22.8758C31.3556 22.9636 31.1984 23.0453 31.0498 23.14C30.3698 23.5747 29.731 24.0994 29.0056 24.4329C27.0133 25.3495 24.9683 25.2387 22.9701 24.4519C19.8553 23.2264 17.9547 20.9132 17.2698 17.6288C16.2829 12.8969 19.1752 8.08543 24.0528 6.89818C26.3704 6.33438 28.5533 6.63724 30.5022 8.10655C30.8153 8.34251 31.0872 8.63377 31.3782 8.89928L31.6994 9.1954ZM26.3307 21.4144C26.6272 21.3653 27.0977 21.3427 27.5328 21.2062C29.6099 20.5547 30.9248 19.1389 31.3597 17C31.8082 14.7951 31.0911 12.9335 29.3632 11.5298C27.2182 9.78731 24.2329 10.0349 22.435 12.0341C20.848 13.8009 20.4935 16.4415 21.6083 18.5505C22.5741 20.3765 24.089 21.355 26.3319 21.4153L26.3307 21.4144Z" fill="#080808"/>
<path d="M42.7612 9.14048C42.8843 9.02687 42.9492 8.9813 42.9958 8.92186C44.4343 7.1326 46.3563 6.5296 48.5505 6.68258C52.0506 6.92668 54.181 9.47136 54.6542 12.6227C54.7487 13.2675 54.7964 13.9185 54.7969 14.5703C54.8075 17.5412 54.7958 20.512 54.79 23.4829C54.7882 24.3883 54.5603 24.6171 53.6631 24.6237C53.0737 24.6277 52.484 24.634 51.8943 24.6289C51.1489 24.6225 50.9295 24.4011 50.9128 23.6415C50.9027 23.1876 50.9062 22.7329 50.903 22.2793C50.8854 19.5867 50.8744 16.8966 50.8467 14.2052C50.8299 12.602 49.7705 11.16 48.2729 10.6582C46.2299 9.97332 43.7612 11.3028 43.2196 13.4013C43.1249 13.7676 43.1124 14.162 43.1115 14.545C43.1059 17.3179 43.1153 20.0907 43.1151 22.8636C43.119 23.2246 43.0987 23.5855 43.0542 23.9438C42.9856 24.4468 42.7397 24.6585 42.2377 24.6676C41.5094 24.6811 40.7808 24.6873 40.0527 24.6749C39.4585 24.6644 39.2343 24.4318 39.2287 23.8411C39.1831 18.5752 39.14 13.3093 39.0994 8.04363C39.0943 7.34989 39.53 6.9112 40.2172 6.89849C40.6795 6.89043 41.1419 6.88848 41.6044 6.89266C42.1124 6.89686 42.3738 7.0852 42.5189 7.58068C42.5862 7.8126 42.6017 8.05996 42.6386 8.30056C42.6761 8.55796 42.714 8.81566 42.7612 9.14048Z" fill="#080808"/>
<path d="M141.074 8.72225C141.531 8.26954 141.877 7.85436 142.292 7.53044C143.659 6.46471 145.241 6.13271 146.933 6.27101C150.522 6.56416 152.547 9.22523 152.967 12.2013C153.084 13.027 153.113 13.8705 153.119 14.7061C153.14 17.3741 153.131 20.0424 153.132 22.7107C153.135 22.9552 153.124 23.1997 153.1 23.443C153.044 23.92 152.841 24.1616 152.374 24.1822C151.567 24.2173 150.756 24.2188 149.948 24.194C149.502 24.1804 149.34 23.9922 149.273 23.5433C149.246 23.3603 149.248 23.1718 149.246 22.9856C149.218 19.9214 149.197 16.8571 149.161 13.7933C149.15 13.0069 148.898 12.2431 148.438 11.6074C147.978 10.9717 147.335 10.4952 146.595 10.2437C144.577 9.56666 142.11 10.867 141.561 12.9151C141.468 13.2586 141.445 13.6287 141.444 13.9867C141.43 16.8062 141.43 19.6256 141.424 22.445C141.423 22.7827 141.426 23.1223 141.394 23.4589C141.348 23.9558 141.086 24.2332 140.625 24.2459C139.851 24.2675 139.076 24.2742 138.302 24.2556C137.758 24.2415 137.546 23.9956 137.534 23.4352C137.522 22.8064 137.526 22.177 137.521 21.5478C137.484 16.9575 137.445 12.3671 137.405 7.77654C137.4 7.30929 137.497 6.91511 137.918 6.67449C138.081 6.58098 138.276 6.50477 138.46 6.49385C138.932 6.46653 139.408 6.47656 139.882 6.47869C140.433 6.48081 140.694 6.66535 140.847 7.19533C140.908 7.40479 140.918 7.62935 140.949 7.84749C140.988 8.11533 141.027 8.38475 141.074 8.72225Z" fill="#080808"/>
<path d="M0.205378 13.2322C0.190488 9.69017 0.175597 6.1481 0.160707 2.60604C0.157159 1.76213 0.368136 1.54708 1.19802 1.54265C2.05337 1.53905 2.90902 1.53292 3.76469 1.53186C4.45785 1.53179 4.68228 1.75418 4.68426 2.44826C4.70127 8.23888 4.71744 14.0296 4.73278 19.8205C4.7358 20.5396 4.7358 20.5402 5.46352 20.5372C8.37651 20.5249 11.2901 20.5142 14.2044 20.5052C14.4071 20.5043 14.6536 20.5033 14.8021 20.6129C14.9651 20.7316 15.1284 20.9723 15.1351 21.1659C15.1707 22.155 15.1639 23.146 15.1549 24.1363C15.1511 24.5241 14.942 24.7268 14.5533 24.7724C14.4151 24.7849 14.2763 24.7896 14.1375 24.7865C9.87113 24.8045 5.60487 24.8224 1.33871 24.8403C1.2576 24.8407 1.17682 24.841 1.09571 24.8395C0.505602 24.8258 0.324141 24.6567 0.311598 24.066C0.296401 23.3672 0.299113 22.668 0.29586 21.9689C0.283616 19.0564 0.271371 16.1438 0.259127 13.231L0.205378 13.2322Z" fill="#080808"/>
<path d="M95.3763 6.2985C97.7515 6.26349 99.5256 7.36986 100.94 9.18356C101.252 9.58456 101.225 9.85332 100.85 10.1831C100.38 10.5969 99.9062 11.0082 99.4105 11.3895C98.933 11.7574 98.7169 11.7256 98.3063 11.2851C97.821 10.7638 97.3303 10.2476 96.6234 10.038C95.636 9.74502 94.6773 9.76679 93.8111 10.405C92.8935 11.081 92.8918 12.0983 93.8691 12.6783C94.4562 13.0269 95.1342 13.2375 95.7915 13.4442C97.106 13.8574 98.4185 14.2568 99.5989 15.0064C102.413 16.7958 102.338 20.3413 100.974 22.2234C100.157 23.3511 99.039 24.0436 97.7158 24.4039C95.3376 25.0523 93.0443 24.8934 90.8909 23.6004C90.081 23.1145 89.4116 22.4232 88.9495 21.5954C88.6417 21.0528 88.6944 20.7386 89.1715 20.3511C89.5585 20.0364 89.951 19.7291 90.3459 19.4246C90.9127 18.9876 91.1819 19.0093 91.6159 19.5967C92.1929 20.3786 92.9595 20.874 93.862 21.1544C94.9133 21.4813 95.9496 21.3718 96.9229 20.8627C97.7726 20.4182 98.0655 19.7248 97.8324 18.8612C97.7079 18.3992 97.3975 18.0749 96.9856 17.8983C96.4113 17.6548 95.8225 17.4479 95.2226 17.2787C93.9523 16.9147 92.6933 16.5386 91.5723 15.7982C89.1406 14.1928 88.5 10.9202 90.1884 8.60119C91.0089 7.47409 92.1726 6.87395 93.4926 6.57442C94.1104 6.43497 94.748 6.38794 95.3763 6.2985Z" fill="#080808"/>
<path d="M110.238 14.3222C110.244 15.6961 110.241 17.0703 110.26 18.4445C110.266 18.8725 110.284 19.3114 110.382 19.7248C110.532 20.3555 110.997 20.6865 111.646 20.7233C112.372 20.7646 112.537 20.9328 112.542 21.6576C112.547 22.3098 112.553 22.9621 112.543 23.6144C112.537 24.069 112.32 24.3477 111.884 24.3569C109.89 24.3969 107.252 23.5964 106.426 20.9107C106.241 20.3095 106.181 19.6518 106.172 19.0186C106.128 16.0023 106.12 12.9856 106.1 9.96886C106.097 9.28999 106.097 9.2903 105.407 9.29225C105.061 9.29371 104.713 9.30468 104.367 9.29061C103.801 9.26733 103.545 9.00356 103.537 8.43623C103.527 7.76045 103.524 7.08465 103.528 6.40881C103.531 5.84872 103.764 5.59906 104.327 5.57325C104.777 5.55267 105.229 5.55141 105.678 5.56314C105.98 5.57106 106.085 5.44707 106.081 5.14962C106.071 4.31144 106.096 3.47247 106.08 2.634C106.071 2.14111 106.284 1.83483 106.734 1.6888C107.525 1.43205 108.311 1.15566 109.113 0.943209C109.892 0.737191 110.223 1.01426 110.237 1.83722C110.254 2.8854 110.244 3.9337 110.247 4.98194C110.25 5.53948 110.252 5.54043 110.816 5.53965C111.313 5.53756 111.81 5.52976 112.307 5.53686C112.897 5.54515 113.144 5.77157 113.159 6.35218C113.177 7.05052 113.178 7.74924 113.163 8.44835C113.15 9.00944 112.901 9.24427 112.338 9.25931C111.807 9.27327 111.275 9.266 110.743 9.27109C110.293 9.27551 110.266 9.29907 110.268 9.74479C110.272 11.2709 110.278 12.7967 110.287 14.3223L110.238 14.3222Z" fill="#080808"/>
<path d="M81.1158 15.6678C81.1052 13.1519 81.0947 10.6359 81.0841 8.11983C81.0833 7.94528 81.081 7.77137 81.0916 7.59583C81.1278 7.00233 81.3992 6.73414 81.992 6.72437C82.6622 6.71331 83.3327 6.7127 84.0039 6.71431C84.7363 6.7163 85.0839 7.063 85.0845 7.80904C85.0881 12.4101 85.0895 17.011 85.0885 21.6119C85.0889 22.2993 85.0971 22.9867 85.0906 23.6738C85.0856 24.22 84.8833 24.4635 84.3543 24.4819C83.5463 24.5096 82.7375 24.513 81.9278 24.4921C81.4018 24.4778 81.209 24.2303 81.2056 23.635C81.1906 20.9796 81.179 18.3239 81.1705 15.6679L81.1158 15.6678Z" fill="#080808"/>
<path d="M83.0262 4.40562C82.6678 4.40712 82.3095 4.41685 81.9514 4.40791C81.3698 4.39293 81.1085 4.16436 81.0866 3.58979C81.0588 2.84545 81.0547 2.10028 81.0744 1.35427C81.0885 0.812814 81.3453 0.585233 81.8913 0.577869C82.6541 0.567059 83.417 0.563852 84.1801 0.568247C84.7582 0.572469 85.0341 0.835189 85.0516 1.42149C85.0721 2.09648 85.0768 2.77313 85.0601 3.44891C85.0449 4.07653 84.7183 4.38551 84.101 4.40046C83.7433 4.40894 83.3846 4.40443 83.0262 4.40562Z" fill="#080808"/>
</g>
<defs>
<clipPath id="clip0_5139_2953">
<rect width="152.91" height="32.1915" fill="white" transform="translate(0.15625 0.916504) rotate(-0.240863)"/>
</clipPath>
</defs>
</svg>
