<svg width="29" height="28" viewBox="0 0 29 28" fill="none" xmlns="http://www.w3.org/2000/svg">
<path d="M14.1101 0.418945C10.3361 0.418945 9.8615 0.435883 8.37867 0.500247C6.89585 0.567999 5.88585 0.794968 5.00102 1.13034C4.0729 1.47049 3.23222 2.00404 2.53775 2.69371C1.83037 3.37072 1.28284 4.18974 0.93324 5.09382C0.589043 5.95427 0.354363 6.94006 0.286567 8.37978C0.220509 9.82798 0.203125 10.2887 0.203125 13.971C0.203125 17.6499 0.220509 18.1106 0.286567 19.5554C0.356101 20.9986 0.589043 21.9827 0.93324 22.8448C1.28961 23.7357 1.76418 24.4912 2.53775 25.2449C3.30959 25.9986 4.0849 26.4627 4.99929 26.8083C5.88585 27.1437 6.89411 27.3723 8.3752 27.4384C9.85977 27.5027 10.3326 27.5197 14.1101 27.5197C17.8876 27.5197 18.3587 27.5027 19.8432 27.4384C21.3226 27.3706 22.336 27.1437 23.2209 26.8083C24.1484 26.468 24.9885 25.9344 25.6824 25.2449C26.456 24.4912 26.9305 23.7357 27.2869 22.8448C27.6294 21.9827 27.8641 20.9986 27.9336 19.5554C27.9996 18.1106 28.017 17.6499 28.017 13.9693C28.017 10.2887 27.9996 9.82798 27.9336 8.38148C27.8641 6.94006 27.6294 5.95427 27.2869 5.09382C26.9374 4.18972 26.3898 3.37068 25.6824 2.69371C24.9881 2.00379 24.1474 1.47019 23.2191 1.13034C22.3326 0.794968 21.3208 0.566306 19.8415 0.500247C18.3569 0.435883 17.8858 0.418945 14.1066 0.418945H14.1118H14.1101ZM12.8637 2.8614H14.1118C17.825 2.8614 18.2648 2.87326 19.7302 2.93931C21.0862 2.9986 21.8232 3.22048 22.3134 3.40511C22.9619 3.65071 23.426 3.94543 23.9127 4.41969C24.3995 4.89395 24.7002 5.3445 24.9523 5.97798C25.1435 6.45394 25.3695 7.17211 25.4303 8.49327C25.4981 9.92114 25.512 10.3497 25.512 13.9659C25.512 17.5822 25.4981 18.0124 25.4303 19.4403C25.3695 20.7614 25.1418 21.4779 24.9523 21.9556C24.7293 22.5439 24.3735 23.0759 23.911 23.5122C23.4243 23.9864 22.9619 24.2794 22.3117 24.525C21.825 24.7114 21.0879 24.9316 19.7302 24.9925C18.2648 25.0569 17.825 25.0721 14.1118 25.0721C10.3987 25.0721 9.95711 25.0569 8.49167 24.9925C7.13574 24.9316 6.40041 24.7114 5.91019 24.525C5.30611 24.3081 4.75961 23.962 4.31089 23.5122C3.84805 23.0752 3.49164 22.5427 3.26787 21.9539C3.07839 21.4779 2.85066 20.7597 2.78982 19.4386C2.72376 18.0107 2.70985 17.5822 2.70985 13.9625C2.70985 10.3446 2.72376 9.91775 2.78982 8.48988C2.8524 7.16872 3.07839 6.45055 3.26961 5.9729C3.52167 5.34111 3.82415 4.88887 4.31089 4.41461C4.79763 3.94035 5.26004 3.64732 5.91019 3.40172C6.40041 3.2154 7.13574 2.99521 8.49167 2.93423C9.77458 2.87664 10.2718 2.8597 12.8637 2.85801V2.8614ZM21.5347 5.11076C21.3155 5.11076 21.0985 5.15282 20.896 5.23453C20.6935 5.31625 20.5096 5.43602 20.3546 5.58702C20.1996 5.73801 20.0767 5.91726 19.9928 6.11454C19.909 6.31182 19.8658 6.52327 19.8658 6.7368C19.8658 6.95034 19.909 7.16178 19.9928 7.35906C20.0767 7.55634 20.1996 7.7356 20.3546 7.88659C20.5096 8.03758 20.6935 8.15735 20.896 8.23907C21.0985 8.32079 21.3155 8.36285 21.5347 8.36285C21.9773 8.36285 22.4017 8.19153 22.7147 7.88659C23.0277 7.58165 23.2035 7.16806 23.2035 6.7368C23.2035 6.30555 23.0277 5.89196 22.7147 5.58702C22.4017 5.28207 21.9773 5.11076 21.5347 5.11076ZM14.1118 7.0112C13.1645 6.9968 12.2238 7.16615 11.3443 7.50941C10.4648 7.85267 9.66422 8.36297 8.9891 9.01059C8.31398 9.65822 7.77783 10.4302 7.41186 11.2817C7.0459 12.1332 6.85743 13.047 6.85743 13.9702C6.85743 14.8933 7.0459 15.8072 7.41186 16.6586C7.77783 17.5101 8.31398 18.2821 8.9891 18.9297C9.66422 19.5773 10.4648 20.0876 11.3443 20.4309C12.2238 20.7742 13.1645 20.9435 14.1118 20.9291C15.9867 20.9006 17.7749 20.1549 19.0905 18.8529C20.406 17.551 21.1433 15.7972 21.1433 13.9702C21.1433 12.1431 20.406 10.3893 19.0905 9.08737C17.7749 7.78541 15.9867 7.0397 14.1118 7.0112ZM14.1118 9.45196C15.3414 9.45196 16.5207 9.92789 17.3901 10.7751C18.2596 11.6222 18.748 12.7712 18.748 13.9693C18.748 15.1674 18.2596 16.3164 17.3901 17.1636C16.5207 18.0107 15.3414 18.4867 14.1118 18.4867C12.8822 18.4867 11.703 18.0107 10.8335 17.1636C9.96404 16.3164 9.47558 15.1674 9.47558 13.9693C9.47558 12.7712 9.96404 11.6222 10.8335 10.7751C11.703 9.92789 12.8822 9.45196 14.1118 9.45196Z" fill="#080808"/>
</svg>
