<svg width="123" height="49" viewBox="0 0 123 49" fill="none" xmlns="http://www.w3.org/2000/svg">
<g clip-path="url(#clip0_5139_2886)">
<path d="M74.6168 32.7594C71.9005 31.4645 71.5879 29.904 73.6672 27.6013C72.9462 19.8187 75.3494 13.0015 81.0918 7.49435C85.5081 3.25929 90.8664 1.01572 96.9545 0.764093C109.46 0.24783 119.822 8.51746 121.862 20.509C123.834 32.0978 116.463 43.6817 104.89 47.2578C92.9766 50.938 79.4602 45.4722 74.6168 32.7594ZM76.6071 32.266C76.8204 32.7639 77.0065 33.2528 77.2333 33.722C82.7628 45.0824 95.9934 49.7678 107.484 44.4392C118.921 39.1358 123.94 25.4833 118.509 14.4538C114.255 5.81593 105.086 0.984775 95.0027 2.06754C85.5654 3.08167 77.2109 10.2497 74.9468 19.3016C74.2853 21.9479 73.9029 24.6176 74.4754 27.3016C77.5817 28.1956 78.092 29.3537 76.6071 32.2642V32.266Z" fill="#080808"/>
<path d="M51.3914 16.354H58.2314C60.1546 21.4839 62.0837 26.6358 64.0906 31.9962H57.9599L54.9744 23.2345L54.596 23.2143L51.6092 32.0119H45.5C47.5042 26.6837 49.4413 21.535 51.3914 16.354Z" fill="#080808"/>
<path d="M14.5469 31.9912L20.394 16.376H27.2497C29.1452 21.4292 31.0778 26.5819 33.0963 31.9621H26.9724C25.9884 29.0771 24.9901 26.1536 23.9927 23.23L23.6733 23.1713C22.6688 26.1029 21.6647 29.0345 20.652 31.9912H14.5469Z" fill="#080808"/>
<path d="M11.3821 32.0164H5.25236V20.8807H0.890625V16.4316H15.751V20.8443H11.3821V32.0164Z" fill="#080808"/>
<path d="M36.2292 32.012V20.8354H31.8594V16.4106H46.7399V20.7565H42.422V32.012H36.2292Z" fill="#080808"/>
<path d="M87.9398 26.0199C88.1048 27.8405 88.6715 29.0458 90.1882 29.5261C91.8945 30.0644 93.286 29.5445 94.2628 27.9697L97.4697 28.7085C96.9061 30.5376 95.7889 31.6002 94.1783 32.1622C90.9177 33.2979 87.0833 32.2999 85.4803 29.9307C83.6018 27.1561 83.8607 21.9307 85.9933 19.5148C87.7779 17.4933 91.3453 16.834 94.07 18.0217C96.5197 19.0892 98.0319 21.7817 97.8056 24.564C97.6982 25.8881 96.8185 26.0442 95.7965 26.0442C93.841 26.0442 91.8851 26.0289 89.9297 26.0217C89.3205 26.0181 88.7113 26.0199 87.9398 26.0199ZM93.8719 23.3678C93.8272 21.4148 92.7984 20.2697 91.1776 20.2576C89.4176 20.2446 88.2176 21.4278 88.1218 23.3678H93.8719Z" fill="#080808"/>
<path d="M98.875 18.0037H102.495L105.76 27.9737L106.157 28.0222C107.272 24.6878 108.388 21.3538 109.516 17.9795H113.139C112.994 18.5052 112.916 18.9142 112.771 19.2964C111.37 22.9488 109.953 26.5954 108.551 30.2478C108.098 31.4284 107.53 32.3434 106.027 32.3452C104.551 32.3452 103.925 31.5342 103.462 30.3128C102.049 26.56 100.594 22.8223 99.1635 19.0771C99.0467 18.7765 98.9931 18.4522 98.875 18.0037Z" fill="#080808"/>
</g>
<defs>
<clipPath id="clip0_5139_2886">
<rect width="121.275" height="47.6438" fill="white" transform="translate(0.890625 0.737305)"/>
</clipPath>
</defs>
</svg>
