<svg width="119" height="66" viewBox="0 0 119 66" fill="none" xmlns="http://www.w3.org/2000/svg">
<g clip-path="url(#clip0_5139_2894)">
<path d="M55.9496 65.3758C40.1524 65.2021 26.5327 59.6426 15.0136 48.889C14.7889 48.6795 14.5251 48.4579 14.4221 48.1881C14.3257 47.9361 14.3054 47.4979 14.4569 47.3476C14.6544 47.1511 15.0639 47.0692 15.3647 47.1011C15.6491 47.1311 15.917 47.3624 16.182 47.5222C24.8101 52.7237 34.1113 56.1012 44.0543 57.7533C50.3597 58.7996 56.7015 59.1306 63.0672 58.5536C71.7064 57.7684 80.0081 55.6318 87.934 52.092C89.4168 51.4294 90.1602 51.4523 90.6266 52.2304C91.0676 52.9657 90.7788 53.5983 89.4904 54.5739C83.3284 59.2373 76.3567 62.1263 68.872 63.8615C64.6279 64.8453 60.324 65.385 55.9496 65.3758Z" fill="#080808"/>
<path d="M28.1475 43.5441L23.0479 43.5655C23.0142 43.0814 22.9595 42.6351 22.9566 42.1866C22.9346 38.6649 22.9311 35.1431 22.9045 31.6214C22.8892 29.5597 22.2014 28.874 20.1371 29.0466C19.0771 29.1354 18.0386 29.4754 16.9198 29.7166L16.9779 43.543L11.7559 43.565C11.7262 43.0798 11.6771 42.6274 11.6742 42.1743C11.6529 38.6914 11.6495 35.2084 11.6226 31.725C11.6062 29.5285 11.0004 28.9655 8.82469 29.0732C8.51541 29.0798 8.20717 29.1113 7.90299 29.1675C5.61723 29.6563 5.57904 29.7096 5.58935 32.0416C5.60351 35.4084 5.61766 38.7753 5.63182 42.1425L5.63799 43.6111L0.492273 43.6328L0.416853 25.692L4.63997 25.6743C4.78419 26.1063 4.93879 26.5695 5.13647 27.1638C5.6297 26.8987 6.06421 26.6792 6.4853 26.4358C8.13083 25.4838 9.90154 24.9461 11.8038 24.9831C13.5457 25.0177 15.0848 25.5736 16.12 27.1361C16.943 26.7076 17.7095 26.2558 18.5179 25.8999C20.2472 25.1361 22.0478 24.7439 23.9531 25.0357C26.3654 25.4051 27.9565 26.858 28.0454 29.3546C28.2105 34.0287 28.1272 38.712 28.1475 43.5441Z" fill="#080808"/>
<path d="M118.77 18.6232C118.099 20.5586 117.501 22.3005 116.891 24.038C114.77 30.0872 112.65 36.1367 110.531 42.1866C110.272 42.931 109.946 43.3569 109.056 43.3008C107.859 43.2251 106.649 43.2573 105.45 43.3089C104.722 43.34 104.326 43.0975 104.075 42.39C102.198 37.1136 100.288 31.8492 98.3898 26.5811C97.565 24.2922 96.7418 22.0031 95.9204 19.7139C95.8193 19.4313 95.749 19.1379 95.6409 18.7679L101.529 18.7432C103.421 24.9744 105.317 31.2177 107.216 37.4731L107.472 37.4429C108.286 34.6727 109.105 31.9041 109.911 29.1319C110.849 25.9065 111.765 22.6751 112.726 19.4568C112.817 19.1499 113.152 18.6918 113.388 18.6816C115.116 18.6079 116.847 18.6313 118.77 18.6232Z" fill="#080808"/>
<path d="M48.7209 43.4626L43.5783 43.4842L43.5027 25.4914L47.6315 25.474C47.8314 25.984 48.0365 26.5114 48.2804 27.1351C48.8302 26.8095 49.3126 26.5091 49.8088 26.2332C51.7913 25.1321 53.8913 24.567 56.1734 24.9073C58.7077 25.2854 60.2215 26.7764 60.3275 29.5642C60.4963 34.0079 60.4085 38.4598 60.422 42.9082C60.4226 43.0528 60.3438 43.1972 60.2833 43.4084L55.2118 43.4297C55.1843 42.9747 55.1406 42.5646 55.1378 42.1529C55.118 38.787 55.1141 35.4215 55.0831 32.0557C55.0783 31.5224 54.9843 30.9858 54.8899 30.4585C54.7037 29.4208 53.9886 28.9395 53.0039 28.9114C52.2784 28.891 51.5183 28.9253 50.8255 29.1127C48.6559 29.6965 48.6637 29.7286 48.6731 31.9518C48.687 35.2784 48.701 38.6054 48.715 41.9327L48.7209 43.4626Z" fill="#080808"/>
<path d="M93.8864 18.8137L93.9041 23.0251L86.4184 23.0565L86.5035 43.3063L81.2271 43.3285L81.1422 23.115L73.6272 23.1466L73.6094 18.8989L93.8864 18.8137Z" fill="#080808"/>
<path d="M38.2425 25.5198L38.3181 43.485L33.263 43.5063L33.1875 25.541L38.2425 25.5198Z" fill="#080808"/>
<path d="M65.4425 43.3464L65.3672 25.4297L70.4151 25.4085L70.4904 43.3252L65.4425 43.3464Z" fill="#080808"/>
<path d="M47.2077 10.7541L44.7375 10.7644C44.7323 9.52463 44.7273 8.34203 44.7224 7.15994C44.7158 6.19293 44.7491 5.2232 44.6779 4.26105C44.6295 3.59715 44.4648 2.91995 43.5591 2.9166C42.6682 2.9132 42.4429 3.54708 42.4151 4.2343C42.3464 5.93316 42.3459 7.6343 42.3095 9.33457C42.2996 9.7862 42.262 10.2374 42.2294 10.7612L39.8643 10.7711C39.8139 10.3765 39.7299 10.0054 39.7268 9.63763C39.7047 7.04669 39.6938 4.4557 39.6942 1.86467C39.6918 1.2961 39.5864 0.592592 40.4949 0.648542C41.2081 0.693052 42.2393 0.188589 42.2728 1.33735C43.0793 1.03205 43.9196 0.446655 44.7317 0.482576C45.5438 0.518498 46.3257 1.17728 47.147 1.57587C47.6161 1.28628 48.2091 0.749434 48.9038 0.526337C50.5025 0.0123414 52.1009 1.00485 52.1914 2.65809C52.3288 5.12594 52.2793 7.60582 52.2472 10.0795C52.2441 10.3206 51.84 10.7203 51.5687 10.7679C49.9132 11.0604 49.6541 10.824 49.6472 9.18162C49.6405 7.59801 49.6533 6.01126 49.6354 4.42617C49.6278 3.72327 49.6446 2.96152 48.6357 2.90701C47.8353 2.86389 47.3724 3.38792 47.3463 4.48279C47.3071 6.14475 47.3351 7.80846 47.3186 9.47084C47.3141 9.88056 47.2493 10.29 47.2077 10.7541Z" fill="#080808"/>
<path d="M89.2454 49.1612C87.2197 49.3664 85.2555 49.5867 83.287 49.7482C82.8774 49.7816 82.4452 49.5949 82.0238 49.5093C82.2588 49.1058 82.401 48.5805 82.7442 48.3191C84.3782 47.0754 86.2811 46.4171 88.2774 46.0328C90.8182 45.5434 93.3636 45.5066 95.8837 46.1714C97.3494 46.5581 97.7215 46.9627 97.6898 48.4397C97.5883 53.1803 96.1586 57.4611 93.0814 61.1358C92.9825 61.2542 92.8889 61.3966 92.7591 61.4666C92.2797 61.7266 91.7878 61.9611 91.2976 62.2048C91.3113 61.6796 91.2136 61.1217 91.3571 60.6342C91.946 58.6394 92.6498 56.6748 93.2274 54.6744C93.5031 53.7175 93.6526 52.712 93.7437 51.7175C93.8686 50.3627 93.3151 49.6846 91.9689 49.4645C91.0513 49.3145 90.1218 49.2556 89.2454 49.1612Z" fill="#080808"/>
<path d="M34.8799 4.34276C34.9789 3.53877 35.0402 2.8836 34.2622 2.54512C33.4713 2.20055 32.8366 2.56183 31.9466 3.85598C31.6365 3.82 31.2957 3.78415 30.9559 3.74113C30.6161 3.69811 30.2829 3.64996 29.8698 3.59244C29.8265 2.44065 30.3437 1.65738 31.199 1.12966C32.7599 0.166781 34.4324 0.149026 36.0987 0.832181C37.1927 1.28122 37.6015 2.2404 37.6599 3.34768C37.7072 4.23432 37.6213 5.13021 37.6977 6.01315C37.7941 7.12998 37.9955 8.23767 38.1925 9.6427C37.1184 11.142 36.7647 11.2083 35.4911 9.97334C34.5992 10.3173 33.7835 10.7846 32.9128 10.9344C31.2476 11.2208 30.1834 10.5678 29.6699 9.17943C29.147 7.76504 29.6687 6.09849 31.0041 5.34551C31.6588 4.97647 32.4429 4.82044 33.1839 4.62422C33.7028 4.48768 34.2466 4.44452 34.8799 4.34276ZM35.0877 6.12476C33.4385 5.96924 32.6619 6.34645 32.3611 7.28768C32.1462 7.96137 32.3106 8.56041 32.9155 8.89605C33.5558 9.25096 34.2176 9.00502 34.4963 8.38878C34.8084 7.69833 34.8947 6.90666 35.0877 6.12476Z" fill="#080808"/>
<path d="M62.47 9.60772C61.2149 11.0643 61.2093 11.0654 59.7403 9.89351C58.8775 10.2323 58.091 10.6856 57.2494 10.8404C55.6585 11.1331 54.5463 10.4941 54.0352 9.20537C53.4735 7.79012 53.9268 6.07431 55.2069 5.31798C55.8855 4.91667 56.7064 4.73697 57.4805 4.51967C57.9948 4.37498 58.5402 4.3405 59.1151 4.24971C59.2426 3.49771 59.4128 2.80224 58.5368 2.44117C57.7481 2.11652 57.0888 2.49017 56.2786 3.75282L54.1055 3.4999C54.1847 3.08629 54.2014 2.7843 54.3021 2.51006C54.9185 0.836477 56.9865 -0.0406601 59.3334 0.358665C61.1148 0.661774 61.9692 1.74119 61.9919 3.72268C61.9999 4.41894 61.9583 5.11948 62.0196 5.81092C62.1218 6.96348 62.2885 8.11015 62.47 9.60772ZM59.1722 5.77436C58.4661 5.96481 57.8767 6.02399 57.3891 6.2784C56.6402 6.66929 56.4344 7.42263 56.731 8.16008C56.8656 8.49667 57.3769 8.87561 57.7341 8.89301C58.5247 8.93209 58.9939 8.32885 59.1585 7.62114C59.2737 7.119 59.1756 6.5677 59.1722 5.77334L59.1722 5.77436Z" fill="#080808"/>
<path d="M81.8845 0.531456L84.0642 0.522293C84.1742 0.846732 84.2805 1.1625 84.405 1.53132C84.5392 1.40765 84.6638 1.31823 84.7566 1.20341C85.5394 0.237162 86.5483 0.0423805 87.6854 0.381403C88.7964 0.712361 89.3621 1.60039 89.4023 2.64236C89.5023 5.22582 89.4533 7.81502 89.4646 10.5225L86.9166 10.5332C86.9095 8.83055 86.9164 7.17946 86.8884 5.52697C86.8782 4.91399 86.7941 4.30133 86.727 3.68859C86.6678 3.1269 86.4156 2.7249 85.787 2.72192C85.0883 2.71618 84.7048 3.14384 84.5937 3.76601C84.4936 4.33297 84.4889 4.92097 84.4842 5.49979C84.4735 6.73762 84.4946 7.97584 84.4926 9.21363C84.4895 10.6553 84.4548 10.6861 82.9691 10.6698C82.6617 10.6665 82.3568 10.6346 81.9264 10.6083L81.8845 0.531456Z" fill="#080808"/>
<path d="M80.6524 5.9253C80.3564 6.80266 80.1633 8.029 79.5676 9.01387C77.9396 11.7042 74.1993 11.5309 72.7496 8.73603C71.712 6.73428 71.7165 4.63109 72.6479 2.58173C73.3692 0.995057 74.8155 0.171616 76.4802 0.266787C77.2996 0.319579 78.0833 0.620234 78.7269 1.12866C79.3704 1.63708 79.8432 2.3291 80.0822 3.11241C80.3248 3.91904 80.4232 4.76868 80.6524 5.9253ZM77.7313 5.66019C77.6157 4.82748 77.5255 4.10603 77.4119 3.38825C77.3092 2.73633 76.928 2.22554 76.2581 2.38059C75.8205 2.48205 75.2516 2.89977 75.1247 3.29774C74.6306 4.81443 74.6615 6.4526 75.2124 7.94968C75.3471 8.31999 75.915 8.7595 76.2813 8.75694C76.6476 8.75437 77.2046 8.30657 77.3352 7.93514C77.5943 7.19077 77.6206 6.36563 77.7298 5.6602L77.7313 5.66019Z" fill="#080808"/>
<path d="M70.9087 10.4623C68.6618 9.46795 66.3712 9.41628 63.9771 10.5691C63.7075 9.3202 63.614 8.28612 64.3413 7.27975C65.3992 5.8158 66.4113 4.31884 67.5921 2.62092L64.1845 2.63525L64.1755 0.493801L66.576 0.48371C67.7398 0.478817 68.9043 0.497415 70.0676 0.462896C70.7754 0.44204 71.1287 0.756781 71.0009 1.42653C70.8956 1.97563 70.7218 2.55157 70.4225 3.01515C69.5247 4.40639 68.5509 5.74892 67.5896 7.13532C71.4979 8.28108 71.7798 8.55626 70.9087 10.4623Z" fill="#080808"/>
<path d="M68.0189 16.9812C69.8494 17.0072 70.9318 18.0887 70.8997 19.8579C70.8693 21.5081 69.606 22.6071 67.7995 22.5555C66.077 22.5055 64.8658 21.351 64.8632 19.7556C64.8596 18.0463 66.1024 16.954 68.0189 16.9812Z" fill="#080808"/>
<path d="M35.7248 17.1231C37.5234 17.1298 38.7859 18.3005 38.7472 19.9267C38.7084 21.5529 37.4044 22.7114 35.6447 22.6942C33.8476 22.6768 32.6687 21.5466 32.6836 19.85C32.6985 18.1534 33.8524 17.1156 35.7248 17.1231Z" fill="#080808"/>
</g>
<defs>
<clipPath id="clip0_5139_2894">
<rect width="118.388" height="65.1135" fill="white" transform="translate(0.3125 0.497559) rotate(-0.240863)"/>
</clipPath>
</defs>
</svg>
