<svg width="191" height="45" viewBox="0 0 191 45" fill="none" xmlns="http://www.w3.org/2000/svg">
<g clip-path="url(#clip0_5139_2911)">
<path d="M0.0274573 7.32829L2.06384 7.31973C3.94252 7.31183 5.82491 7.37377 7.69976 7.26601C8.76297 7.20381 9.2549 7.62203 9.69774 8.55022C11.7954 12.9613 13.9635 17.338 16.1106 21.7251C16.2771 22.0656 16.4715 22.3927 16.7417 22.8858C16.9854 22.4806 17.1716 22.2126 17.3132 21.9239C19.5147 17.4347 21.7395 12.957 23.8856 8.44034C24.337 7.48819 24.8833 7.15047 25.9082 7.1935C27.7446 7.27064 29.5877 7.20169 31.4276 7.19454L32.9386 7.18819C27.5366 17.3964 22.2601 27.3673 16.8751 37.5442C19.9252 37.8917 22.3962 37.2687 24.3831 35.1134C25.9518 33.4112 26.9833 31.3661 27.8443 29.238C30.0418 23.8084 32.168 18.3502 34.386 12.9304C35.5485 10.088 36.9723 7.37734 38.931 4.9929C41.8701 1.4122 45.7045 0.23916 50.143 0.682925C50.4016 0.708972 50.6526 0.817606 50.9871 0.9103L51.0123 6.90496C50.6007 6.90669 50.2655 6.91676 49.9307 6.90951C47.1681 6.83972 45.0708 8.07301 43.4661 10.2851C41.5331 12.9488 40.4365 16.0282 39.203 19.0423C37.1033 24.1742 35.0601 29.3323 32.8304 34.4059C31.5932 37.2208 29.8709 39.7613 27.3819 41.6648C25.3389 43.2257 22.9906 43.7893 20.499 43.9672C19.7523 44.0205 19.5168 43.5366 19.2351 43.0135C16.5149 37.9654 13.7903 32.9195 11.0611 27.8756C7.58017 21.4325 4.10101 14.9888 0.623533 8.54447C0.455447 8.24036 0.317472 7.92631 0.0274573 7.32829Z" fill="#080808"/>
<path d="M175.704 12.6197L175.679 6.60426L179.006 6.59027L179.084 25.1551C176.23 25.805 173.367 26.2927 170.604 24.8137C168.199 23.5266 167.505 21.2798 167.692 18.6944C167.88 16.0957 169.629 13.924 172.16 13.2062C173.253 12.8967 174.41 12.8255 175.704 12.6197ZM175.646 22.3459L175.619 16.0164C173.946 15.8722 172.537 16.1488 171.603 17.588C170.911 18.6531 171.001 20.3616 171.723 21.3354C172.541 22.4375 173.938 22.8155 175.646 22.3459Z" fill="#080808"/>
<path d="M74.1496 25.6819L74.1341 22.0155C74.8876 22.085 75.5615 22.1827 76.2379 22.1995C76.8073 22.2138 77.4011 22.2211 77.9454 22.082C79.3432 21.7245 79.7871 20.4549 78.8941 19.2977C78.4797 18.7602 77.8774 18.3696 77.3512 17.9233C76.5307 17.2282 75.5929 16.6404 74.8978 15.8356C72.7113 13.3047 73.441 9.76269 76.4198 8.31844C78.3515 7.38143 80.4009 7.35147 82.5659 7.72801L82.581 11.3257C82.2434 11.3271 81.9172 11.317 81.5921 11.3299C80.945 11.3597 80.2781 11.3164 79.6542 11.4593C78.263 11.7774 77.9344 12.9813 78.9815 13.9514C79.6285 14.5497 80.4007 15.0071 81.11 15.5359C82.4772 16.5554 83.5459 17.8002 83.8675 19.5481C84.4169 22.538 82.9346 24.8864 79.947 25.717C78.0614 26.2439 76.1627 26.1099 74.1496 25.6819Z" fill="#080808"/>
<path d="M119.404 26.4589L113.332 13.458L117.022 13.4425L119.776 19.7092L123.658 12.607L127.703 19.9379C128.735 17.6117 129.677 15.4844 130.636 13.3304L133.858 13.3169C131.868 17.6834 129.941 21.9099 127.884 26.4227C126.404 23.8166 125.08 21.4846 123.633 18.9355L119.404 26.4589Z" fill="#080808"/>
<path d="M90.1304 25.7635L86.8057 25.7774L86.7266 6.96094L90.0433 6.94699L90.0718 13.7291C91.157 13.4746 92.1311 13.0854 93.1176 13.0495C95.0171 12.9838 96.5782 14.2144 96.6881 16.1208C96.8722 19.2837 96.7609 22.464 96.7746 25.717L93.5723 25.7305C93.5454 25.293 93.5021 24.8845 93.4987 24.4758C93.4802 22.3796 93.5032 20.2827 93.45 18.1873C93.414 16.7881 92.8354 16.2178 91.6811 16.277C90.5997 16.3317 90.1003 16.8459 90.101 17.9578C90.1009 20.5164 90.1191 23.0744 90.1304 25.7635Z" fill="#080808"/>
<path d="M106.124 26.1491C102.333 26.1691 99.5154 23.3919 99.4967 19.617C99.4771 15.7658 102.248 12.9779 106.119 12.9501C109.973 12.9252 112.821 15.7299 112.82 19.5489C112.819 23.3678 110.026 26.1327 106.124 26.1491ZM102.958 19.5695C102.955 21.4273 104.292 22.8159 106.103 22.8354C107.964 22.8559 109.372 21.4361 109.364 19.5472C109.356 17.6998 107.997 16.2992 106.196 16.2808C104.318 16.2616 102.96 17.6401 102.958 19.5701L102.958 19.5695Z" fill="#080808"/>
<path d="M155.657 25.2159C153.333 25.7349 151.069 26.1681 148.783 25.6264C147.928 25.4233 147.033 24.9733 146.38 24.3815C144.567 22.7391 144.96 19.8301 147.162 18.7205C148.2 18.1966 149.415 18.0287 150.556 17.7248C151.068 17.5905 151.591 17.5236 152.316 17.3872C150.94 15.0711 148.952 16.0972 147.122 16.0339L147.11 13.1584C149.453 12.6428 151.793 12.3622 153.978 13.8581C154.993 14.5518 155.548 15.6411 155.592 16.8244C155.696 19.5662 155.645 22.3161 155.657 25.2159ZM152.265 19.9328C151.274 20.2008 150.367 20.3506 149.549 20.7114C149.197 20.8671 148.808 21.4818 148.844 21.8465C148.881 22.2112 149.383 22.7535 149.753 22.8212C150.551 22.968 151.389 22.8605 152.277 22.8568L152.265 19.9328Z" fill="#080808"/>
<path d="M189.524 13.1695C189.526 13.7387 189.537 14.3535 189.527 14.9684C189.523 15.2299 189.472 15.4881 189.448 15.7151C188.583 15.7188 187.785 15.6598 187.004 15.7491C186.556 15.8006 186.135 16.0928 185.701 16.2741C185.975 16.6442 186.187 17.0965 186.536 17.3675C187.171 17.859 187.919 18.2011 188.566 18.6793C189.936 19.6942 190.467 21.1018 190.12 22.7717C189.785 24.3809 188.593 25.111 187.124 25.4681C185.679 25.8206 183.722 25.7347 182.424 25.2708L182.412 22.4871C183.389 22.5494 184.296 22.6853 185.192 22.6313C185.664 22.6033 186.117 22.2441 186.578 22.0349C186.285 21.587 186.072 21.0388 185.68 20.7137C185.094 20.2284 184.355 19.9376 183.728 19.4963C182.516 18.6441 181.772 17.4984 181.991 15.9428C182.212 14.3733 183.27 13.5323 184.678 13.0749C186.06 12.631 188.188 12.6601 189.524 13.1695Z" fill="#080808"/>
<path d="M72.2221 13.5782L65.2748 26.6991C62.8609 22.2328 60.5831 18.0194 58.1876 13.5865C59.5442 13.5807 60.6462 13.5253 61.7379 13.6079C62.0044 13.6281 62.3125 14.0598 62.4726 14.3703C63.2527 15.8853 63.9879 17.4237 64.7424 18.9515C64.91 19.2914 65.093 19.6232 65.3639 20.1388C66.1582 18.5334 66.8518 17.0785 67.5904 15.6483C68.9344 13.0448 68.0714 13.6026 70.9853 13.5211C71.3166 13.5116 71.6527 13.5506 72.2221 13.5782Z" fill="#080808"/>
<path d="M143.083 25.4775C140.48 26.3481 137.219 25.3394 135.594 23.1998C134.128 21.2685 134.016 17.9823 135.346 15.9515C136.845 13.662 140.024 12.5229 142.97 13.2841L142.982 16.2802C139.1 16.6683 137.952 17.3983 137.968 19.4292C137.985 21.5109 139.256 22.2815 143.071 22.4675L143.083 25.4775Z" fill="#080808"/>
<path d="M162.049 13.2186C162.134 13.545 162.201 13.8005 162.297 14.1667C163.375 13.4082 164.464 12.8153 165.879 13.0663L165.892 16.2697C165.374 16.3521 164.817 16.4139 164.272 16.5323C162.714 16.8714 162.313 17.388 162.318 18.9964C162.327 21.1191 162.336 23.2424 162.345 25.4361L159.005 25.4502L158.954 13.2316L162.049 13.2186Z" fill="#080808"/>
<path d="M125.349 39.8791C125.346 39.0483 125.36 38.217 125.334 37.3869C125.312 36.7231 125.311 35.9368 124.417 35.9163C123.523 35.8958 123.323 36.62 123.301 37.3741C123.278 38.2251 123.282 39.0766 123.275 39.9276L122.819 39.9405C122.774 39.4419 122.715 38.9439 122.689 38.4441C122.66 37.9021 122.741 37.3383 122.62 36.8233C122.536 36.4721 122.213 35.9735 121.938 35.9308C121.632 35.8841 121.073 36.204 120.957 36.4989C120.724 37.0882 120.701 37.7701 120.623 38.4135C120.563 38.9155 120.552 39.4229 120.519 39.9276L120.199 39.918L120.181 35.5207C121.098 36.022 122.246 34.5306 123.078 35.9196C123.422 35.7126 123.691 35.4742 124.003 35.3811C124.735 35.1616 125.466 35.2797 125.725 36.0776C126.129 37.3252 125.941 38.6134 125.893 39.882L125.349 39.8791Z" fill="#080808"/>
<path d="M62.971 40.2741C62.7092 39.77 62.4475 39.2666 62.1428 38.679L59.746 38.6891L58.9557 40.2835L58.6518 40.1791C58.6831 39.907 58.6717 39.6207 58.7526 39.3647C59.2655 37.7391 59.7824 36.1147 60.3416 34.5051C60.4378 34.2288 60.7438 34.0277 60.9529 33.7925C61.1348 34.014 61.3964 34.2074 61.4863 34.4628C62.0803 36.142 62.643 37.8329 63.1973 39.5267C63.2607 39.7204 63.207 39.9538 63.2079 40.1686L62.971 40.2741ZM59.877 37.897L61.9965 37.8881C61.6396 36.8083 61.3305 35.8703 61.0214 34.9358L60.766 34.9906C60.4785 35.9293 60.1915 36.8681 59.877 37.897Z" fill="#080808"/>
<path d="M172.799 37.5935L169.915 37.6056C169.825 39.0435 169.897 39.0882 172.501 39.3596C171.664 40.2955 169.833 39.977 169.347 38.7378C169.132 38.1897 169.081 37.5202 169.145 36.927C169.281 35.6437 170.194 34.9471 171.353 35.1108C172.432 35.265 172.94 36.0671 172.799 37.5935ZM172.243 36.9758C172.239 36.0735 171.798 35.6562 171.042 35.6727C170.302 35.689 169.856 36.1129 169.831 36.9859L172.243 36.9758Z" fill="#080808"/>
<path d="M141.046 37.603C141.062 39.0612 140.336 39.9648 139.12 39.9988C137.841 40.0348 137.041 39.1312 137.034 37.6406C137.026 36.15 137.824 35.2207 139.081 35.2333C140.278 35.2456 141.031 36.1528 141.046 37.603ZM140.419 37.575C140.397 36.4315 139.909 35.7921 139.06 35.794C138.171 35.7977 137.656 36.4926 137.675 37.6737C137.692 38.789 138.201 39.4502 139.043 39.453C139.93 39.455 140.44 38.7601 140.417 37.5744L140.419 37.575Z" fill="#080808"/>
<path d="M130.409 39.7907C128.407 40.2997 127.311 39.9873 127.134 38.9478C126.938 37.7911 127.568 37.3139 129.647 37.0448C129.719 36.2137 129.719 36.2137 127.503 35.6971C128.115 35.0705 128.844 35.1719 129.414 35.3941C129.827 35.554 130.25 36.0862 130.367 36.5337C130.54 37.19 130.447 37.9189 130.452 38.6169C130.455 38.9967 130.426 39.3767 130.409 39.7907ZM129.754 37.7994C129.051 37.6442 128.376 37.5495 127.883 38.1889C127.738 38.3766 127.712 38.838 127.841 39.0297C128.319 39.7406 129.02 39.4906 129.76 39.3864L129.754 37.7994Z" fill="#080808"/>
<path d="M167.266 39.7227C167.262 38.9387 167.277 38.1541 167.25 37.3714C167.225 36.6533 167.369 35.785 166.28 35.7267C165.508 35.6855 164.969 36.3626 164.896 37.4142C164.846 38.1447 164.828 38.878 164.782 39.6085C164.783 39.6558 164.669 39.6973 164.612 39.7402C164.194 39.1069 164.095 36.6399 164.389 35.5135C164.844 35.4377 165.233 35.443 165.566 35.3036C166.756 34.8056 167.701 35.2704 167.814 36.5516C167.907 37.5984 167.841 38.6598 167.845 39.7151L167.266 39.7227Z" fill="#080808"/>
<path d="M83.2986 39.7373C83.8359 38.2098 84.3068 36.8703 84.7776 35.5301L85.1196 35.6221C85.1204 35.8207 85.172 36.037 85.1141 36.2162C84.5521 37.947 83.9901 39.6802 83.3807 41.395C83.0296 42.3831 82.6157 42.5165 81.7778 42.1234L83.0337 40.9243L81.1258 35.7227L81.5656 35.5372C82.4211 36.7102 82.4988 38.2622 83.2986 39.7373Z" fill="#080808"/>
<path d="M75.2485 37.9369C75.2375 39.3715 74.4778 40.2614 73.2544 40.2729C71.9832 40.2846 71.2216 39.3722 71.2368 37.8567C71.2513 36.4134 72.007 35.5206 73.2196 35.5097C74.4532 35.4982 75.26 36.4629 75.2485 37.9369ZM71.8649 37.8789C71.8522 39.0613 72.376 39.7501 73.2703 39.7285C74.1128 39.7082 74.6025 39.0457 74.6063 37.9211C74.611 36.7405 74.0769 36.0349 73.1997 36.0629C72.3595 36.0895 71.8766 36.7467 71.8672 37.8795L71.8649 37.8789Z" fill="#080808"/>
<path d="M85.8773 37.7922C85.8879 36.3892 86.6861 35.4581 87.8856 35.449C89.1216 35.4398 89.9392 36.4149 89.9238 37.8837C89.9103 39.2935 89.1262 40.202 87.9108 40.2158C86.659 40.2291 85.8659 39.284 85.8773 37.7922ZM89.2779 37.8252C89.2686 36.6989 88.7842 36.0411 87.9415 36.0128C87.0601 35.9831 86.5211 36.6879 86.526 37.8598C86.5307 38.9769 87.022 39.6382 87.8669 39.6629C88.7608 39.6892 89.2874 39.004 89.2779 37.8229L89.2779 37.8252Z" fill="#080808"/>
<path d="M115.665 37.7073C115.663 39.1852 114.855 40.1256 113.603 40.106C112.4 40.0874 111.644 39.1779 111.635 37.7381C111.625 36.2591 112.432 35.3158 113.686 35.3371C114.871 35.3581 115.667 36.3114 115.665 37.7073ZM115.022 37.7504C115.027 36.5542 114.508 35.8746 113.613 35.9037C112.759 35.9316 112.281 36.5738 112.278 37.7088C112.275 38.8998 112.793 39.5777 113.687 39.5503C114.548 39.5242 115.018 38.8918 115.022 37.751L115.022 37.7504Z" fill="#080808"/>
<path d="M162.984 37.5303C162.984 39.0146 162.181 39.9382 160.915 39.9124C159.722 39.888 158.967 38.9663 158.963 37.5276C158.957 36.0538 159.776 35.1082 161.027 35.1393C162.205 35.1684 162.985 36.124 162.984 37.5303ZM162.358 37.5844C162.367 36.4032 161.844 35.6947 160.969 35.7035C160.115 35.7118 159.62 36.3535 159.603 37.4822C159.584 38.6606 160.099 39.3558 160.988 39.3561C161.833 39.356 162.348 38.69 162.356 37.5844L162.358 37.5844Z" fill="#080808"/>
<path d="M91.7077 35.5823C91.7233 36.3142 91.7406 37.0462 91.7539 37.7787C91.785 39.4892 92.2848 39.8779 94.1782 39.4376L94.1619 35.5697L94.643 35.5723C94.8198 37.0027 94.7285 38.4475 94.6928 40.112C93.8685 40.1154 93.1195 40.1844 92.3899 40.0922C92.0658 40.0515 91.7052 39.7441 91.494 39.4575C90.9895 38.7767 90.9946 36.4472 91.4345 35.5944L91.7077 35.5823Z" fill="#080808"/>
<path d="M109.477 39.9691C108.822 38.6498 109.938 36.919 108.752 35.778C108.937 35.3685 109.181 34.9426 109.326 34.4842C109.647 33.472 110.362 33.1583 111.387 33.7279C110.648 34.0196 109.598 34.0004 110 35.2924L111.057 35.6228L111.062 35.8191L109.836 36.1707L109.852 39.9554L109.477 39.9691Z" fill="#080808"/>
<path d="M181.355 39.6514L181.337 35.4019C181.793 35.3272 182.267 35.3119 182.698 35.1652C183.803 34.7951 184.677 35.2487 184.773 36.4075C184.863 37.4844 184.801 38.5746 184.805 39.6588L184.381 39.6871C184.336 39.2786 184.27 38.8713 184.25 38.4615C184.224 37.9207 184.325 37.3539 184.198 36.8452C184.091 36.4185 183.709 35.7175 183.493 35.734C183.006 35.7713 182.376 36.0654 182.121 36.4637C181.838 36.9008 181.902 37.5702 181.843 38.1391C181.788 38.6462 181.771 39.1572 181.736 39.6659L181.355 39.6514Z" fill="#080808"/>
<path d="M142.496 39.8225L142.478 35.6001C142.882 35.5407 143.281 35.5604 143.612 35.4187C144.853 34.8881 145.792 35.3715 145.895 36.7173C145.972 37.7429 145.918 38.7782 145.922 39.8092L145.491 39.8422C145.444 39.5359 145.368 39.2308 145.354 38.9232C145.326 38.305 145.355 37.6843 145.319 37.0667C145.288 36.5184 145.229 35.9217 144.534 35.8322C143.838 35.7428 143.334 36.1259 143.134 36.7751C142.989 37.2439 142.982 37.7624 142.956 38.2607C142.93 38.7804 142.954 39.2998 142.957 39.8229L142.496 39.8225Z" fill="#080808"/>
<path d="M106.933 39.9676C106.93 39.2252 106.948 38.481 106.917 37.7393C106.886 36.9976 107.081 36.0644 105.939 35.9762C105.164 35.9166 104.616 36.6682 104.547 37.7856C104.505 38.4786 104.477 39.1674 104.43 39.8575C104.427 39.9037 104.322 39.9422 104.098 40.1036L104.08 35.7826C104.517 35.682 104.99 35.6056 105.441 35.4611C106.279 35.1897 107.199 35.4612 107.323 36.2435C107.518 37.4637 107.492 38.72 107.559 39.9604L106.933 39.9676Z" fill="#080808"/>
<path d="M154.989 39.7637C154.985 38.9255 154.998 38.0895 154.973 37.2496C154.954 36.584 154.958 35.8607 154.053 35.7675C153.373 35.6976 152.708 36.3019 152.635 37.1665C152.563 38.031 152.625 38.9025 152.516 39.7689C151.927 39.1998 151.805 36.9136 152.162 35.2743L152.72 35.7096C152.931 35.5898 153.174 35.4127 153.446 35.3024C154.525 34.8758 155.419 35.3691 155.518 36.5343C155.609 37.6071 155.545 38.6939 155.55 39.7746L154.989 39.7637Z" fill="#080808"/>
<path d="M131.599 35.4796L132.533 34.1386C132.636 34.5706 132.711 34.8844 132.788 35.2062L133.829 35.5003C133.834 35.5712 133.839 35.6422 133.845 35.7132C133.513 35.8156 133.182 35.9181 132.707 36.0644C132.711 36.9367 132.617 37.8712 132.765 38.7642C132.829 39.1432 133.401 39.4353 133.724 39.7485C132.961 40.2402 132.26 40.0053 132.135 39.0538C132.045 38.3672 132.144 37.6561 132.064 36.9665C132.011 36.513 131.793 36.0769 131.599 35.4796Z" fill="#080808"/>
<path d="M78.5422 35.9455L77.3038 36.3167L77.3198 40.1153L76.9942 40.1167C76.2195 38.8089 77.5594 36.987 76.2366 35.9575C76.4463 35.4745 76.6751 35.0464 76.8212 34.5909C77.1449 33.5844 77.8735 33.28 78.8643 33.8704C78.1185 34.1443 77.12 34.1635 77.4475 35.4305L78.5305 35.7388L78.5422 35.9455Z" fill="#080808"/>
<path d="M67.325 33.5239C67.3658 34.1461 67.4132 34.5806 67.4195 35.0164C67.4351 36.1357 67.4227 37.2552 67.4416 38.3739C67.4524 39.0476 67.2253 39.8678 68.6143 39.836C67.4705 40.3794 66.9246 40.2472 66.8988 39.5176C66.8339 37.6347 66.8943 35.7472 66.9137 33.8599C66.9124 33.8143 67.0209 33.7665 67.325 33.5239Z" fill="#080808"/>
<path d="M96.295 40.0343C96.1796 38.5915 96.2259 37.137 96.2575 35.7237L98.2643 35.5998C98.265 35.7637 98.2821 35.8958 98.2656 35.9011C96.9788 36.2725 96.75 37.2261 96.8495 38.4178C96.8945 38.9528 96.7971 39.4999 96.7647 40.0421L96.295 40.0343Z" fill="#080808"/>
<path d="M117.004 39.9549C116.851 38.4828 116.947 37.0021 116.938 35.6415L118.967 35.5221L119.031 35.7152C118.905 35.8168 118.792 35.9737 118.649 36.0113C117.789 36.2366 117.543 36.8519 117.551 37.6676C117.558 38.4342 117.539 39.2015 117.531 39.9688L117.004 39.9549Z" fill="#080808"/>
<path d="M65.8762 40.0188C65.1064 40.4059 64.4502 40.3088 64.4136 39.4511C64.3346 37.6069 64.4037 35.7564 64.421 33.9089C64.4208 33.8546 64.5145 33.8017 64.7282 33.5722C64.8187 33.9903 64.9287 34.2751 64.9344 34.5614C64.9581 35.8729 64.9751 37.1857 64.951 38.4968C64.9363 39.1989 64.9781 39.8141 65.8762 40.0188Z" fill="#080808"/>
<path d="M176.952 33.257L176.961 35.393C176.964 36.2046 176.997 37.0174 176.965 37.8275C176.935 38.5873 176.943 39.2905 178.004 39.4811C176.99 39.9207 176.468 39.7884 176.445 39.0535C176.38 37.1689 176.441 35.2797 176.461 33.3924C176.461 33.3491 176.566 33.3071 176.621 33.2647L176.952 33.257Z" fill="#080808"/>
<path d="M150.306 35.3037L150.325 39.8003L149.983 39.826C149.863 38.3832 149.743 36.9375 149.61 35.3638L150.306 35.3037Z" fill="#080808"/>
<path d="M189.37 35.3334L188.001 37.2592C188.551 38.0047 189.102 38.7495 189.652 39.4934L189.336 39.769L187.205 37.4L188.995 35.0359L189.37 35.3334Z" fill="#080808"/>
<path d="M186.709 33.231L186.736 39.777C186.16 38.9326 186.104 34.1261 186.709 33.231Z" fill="#080808"/>
<path d="M134.524 35.4525L135.636 35.3664L135.655 39.8405C134.624 38.5724 135.791 36.8523 134.524 35.4525Z" fill="#080808"/>
<path d="M102.016 39.9899C101.355 38.6343 102.438 36.9556 101.172 35.5869L102.294 35.5822L102.312 39.9697L102.016 39.9899Z" fill="#080808"/>
<path d="M179.118 39.6715C179.115 38.9337 179.141 38.1947 179.1 37.4594C179.062 36.7777 178.95 36.0999 178.852 35.2482L179.579 35.1874L179.597 39.6562L179.118 39.6715Z" fill="#080808"/>
</g>
<defs>
<clipPath id="clip0_5139_2911">
<rect width="190.131" height="43.2574" fill="white" transform="translate(0 0.796875) rotate(-0.240863)"/>
</clipPath>
</defs>
</svg>
