<svg width="89" height="46" viewBox="0 0 89 46" fill="none" xmlns="http://www.w3.org/2000/svg">
<g clip-path="url(#clip0_5139_2882)">
<path d="M0.09375 41.0824V4.99759C0.128924 4.87761 0.156032 4.75545 0.174905 4.63191C0.265837 3.75355 0.625684 2.92394 1.20599 2.25477C1.78629 1.5856 2.55919 1.10899 3.42062 0.889142C3.49254 0.864406 3.56217 0.833542 3.62873 0.796875H85.3439C85.4033 0.829975 85.4655 0.857854 85.5298 0.880198C87.1495 1.28305 88.1658 2.31396 88.6798 3.86478C88.7582 4.10098 88.8185 4.34682 88.8816 4.5844V41.4267C88.846 41.4957 88.817 41.5679 88.7949 41.6423C88.3933 43.7584 86.6598 45.1922 84.4941 45.1922C57.8255 45.1922 31.1569 45.1922 4.4882 45.1922C2.40717 45.1922 0.684065 43.8067 0.244967 41.7807C0.195716 41.5479 0.144388 41.3152 0.09375 41.0824ZM31.1844 21.6627L31.1365 21.6593C30.8789 19.94 30.6216 18.2202 30.3644 16.5C30.0398 14.3039 29.7096 12.1092 29.4086 9.90967C29.3614 9.56948 29.2323 9.51301 28.9278 9.5137C26.1295 9.5238 23.3317 9.5238 20.5343 9.5137C20.2229 9.5137 20.1181 9.58944 20.1181 9.9131C20.1255 18.6465 20.1255 27.3803 20.1181 36.1145C20.1181 36.4141 20.1986 36.5071 20.5073 36.505C22.3108 36.4912 24.1144 36.4981 25.918 36.4981C26.3917 36.4981 26.3938 36.4981 26.3938 36.0326C26.3971 30.7989 26.4001 25.5652 26.4028 20.3316V19.353H26.4223C27.2547 25.0641 28.0887 30.77 28.9244 36.4706H33.3979L35.7758 18.9302C35.789 19.0313 35.7944 19.1333 35.7918 19.2352C35.7918 24.8243 35.7941 30.4135 35.7987 36.003C35.7987 36.4981 35.7987 36.4981 36.3106 36.4981H41.9932V9.54124H32.7562C32.2318 13.5927 31.7079 17.633 31.1844 21.662V21.6627ZM44.4967 9.5378V36.4843C44.6091 36.4898 44.6903 36.4974 44.7742 36.4974C47.5593 36.4974 50.3451 36.5257 53.1302 36.4843C54.3955 36.4651 55.6753 36.4045 56.9191 36.193C58.8322 35.8673 59.9671 34.7001 60.2536 32.8187C60.4275 31.6291 60.5176 30.4288 60.5234 29.2267C60.5588 25.9337 60.5436 22.6406 60.5338 19.3475C60.5338 18.1079 60.5089 16.8684 60.4527 15.6288C60.4229 14.9677 60.3688 14.2949 60.2106 13.6552C59.7209 11.6685 58.3786 10.5095 56.4231 10.0054C54.8797 9.60666 53.2953 9.55638 51.7158 9.53297C49.4267 9.49923 47.1375 9.52058 44.8484 9.5192C44.734 9.51989 44.6216 9.53091 44.4967 9.53711V9.5378ZM69.6814 34.678L69.7771 34.6326C69.8207 34.7128 69.8711 34.7893 69.9276 34.8612C71.4128 36.4712 73.2788 36.9402 75.3542 36.4706C77.1197 36.0718 78.3516 35.0024 78.6714 33.1465C78.8143 32.3219 78.8871 31.4869 78.8892 30.6502C78.8948 27.0692 78.8772 23.4883 78.8365 19.9074C78.8185 18.2891 77.8792 17.044 76.3552 16.4752C75.5062 16.1584 74.6252 16.0978 73.731 16.1308C72.3014 16.1797 71.0431 16.6363 70.0227 17.661C69.9484 17.7354 69.8693 17.8056 69.7237 17.944V17.4317C69.7237 14.8608 69.7237 12.2898 69.7237 9.71892C69.7237 9.2651 69.7237 9.26303 69.2596 9.26303C67.2715 9.26303 65.2828 9.26992 63.294 9.25546C62.9471 9.25546 62.8424 9.34774 62.8438 9.70101C62.857 12.9831 62.8514 16.2658 62.8514 19.5486C62.8514 24.9769 62.8514 30.4052 62.8514 35.8336C62.8514 36.2805 62.8514 36.2812 63.3106 36.2812C65.1836 36.2812 67.0565 36.277 68.9294 36.2867C69.1854 36.2867 69.2984 36.2082 69.3512 35.9575C69.4427 35.5264 69.5697 35.1036 69.6814 34.6773V34.678ZM17.8762 23.2135C17.8762 18.8296 17.8785 14.4453 17.8831 10.0605C17.8831 9.75817 17.7964 9.66727 17.4933 9.66865C15.378 9.67967 13.2625 9.67967 11.1468 9.66865C10.8437 9.66865 10.7521 9.76161 10.7528 10.0632C10.7597 18.8076 10.7597 27.5534 10.7528 36.3005C10.7528 36.6255 10.8589 36.7047 11.169 36.7026C13.2611 36.6909 15.3533 36.6882 17.4454 36.7026C17.802 36.7026 17.8859 36.6048 17.8852 36.2598C17.8722 31.9108 17.8692 27.5618 17.8762 23.2128V23.2135Z" fill="#080808"/>
<path d="M51.6094 31.7602V14.2433C52.8622 14.1262 53.6467 14.4271 53.6529 15.5744C53.6529 15.929 53.705 16.2837 53.705 16.6383C53.7077 20.7812 53.7052 24.9241 53.6974 29.067C53.6877 29.5938 53.6395 30.1192 53.5531 30.6391C53.4435 31.3698 53.0675 31.6721 52.2039 31.7575C52.0221 31.7761 51.8369 31.7602 51.6094 31.7602Z" fill="#080808"/>
<path d="M69.7565 26.2738C69.7565 24.6802 69.753 23.0874 69.7565 21.4939C69.7612 21.2422 69.7872 20.9913 69.8342 20.744C69.9091 20.3266 70.1741 20.1159 70.6063 20.1015C71.4942 20.0712 71.9069 20.4093 71.9298 21.2956C71.977 23.128 71.9874 24.9612 72.0033 26.7944C72.0123 27.8494 72.0186 28.9044 71.9957 29.9587C71.9818 30.6094 71.9062 31.2595 71.8694 31.9103C71.8528 32.1975 71.7092 32.3999 71.4532 32.4901C71.2064 32.5826 70.9467 32.6367 70.6833 32.6506C70.2546 32.6637 69.9896 32.4536 69.8821 32.0363C69.8065 31.7609 69.7646 31.4774 69.7572 31.192C69.7454 29.5524 69.7516 27.9134 69.7516 26.2738H69.7565Z" fill="#080808"/>
</g>
<defs>
<clipPath id="clip0_5139_2882">
<rect width="88.7907" height="44.3953" fill="white" transform="translate(0.09375 0.796875)"/>
</clipPath>
</defs>
</svg>
