<svg width="602" height="602" viewBox="0 0 602 602" fill="none" xmlns="http://www.w3.org/2000/svg">
<path d="M518.594 224.546C515.41 214.19 511.25 204.16 506.169 194.591C479.97 145.901 434.026 109.167 383.771 87.4348C343.87 70.2055 294.53 61.1996 252.197 76.7191C230.79 84.5692 210.635 99.5951 199.161 119.642C184.208 145.817 185.616 178.192 173.745 205.704C164.113 227.966 140.177 241.342 121.419 255.068C92.1497 276.403 63.3139 301.626 53.1642 337.71C39.6312 385.81 43.6405 443.072 71.0315 485.85C91.4995 517.768 126.536 527.352 162.692 527.99C196.813 528.604 238.544 519.984 270.39 535.552C324.642 562.039 396.232 591.778 456.938 570.817C519.546 549.205 550.212 507.113 559.278 452.512C568.344 397.91 543.361 352.423 535.39 309.236C530.43 281.917 527.143 251.757 518.594 224.546Z" fill="#F5C518"/>
<path opacity="0.8" d="M518.594 224.546C515.41 214.19 511.25 204.16 506.169 194.591C479.97 145.901 434.026 109.167 383.771 87.4348C343.87 70.2055 294.53 61.1996 252.197 76.7191C230.79 84.5692 210.635 99.5951 199.161 119.642C184.208 145.817 185.616 178.192 173.745 205.704C164.113 227.966 140.177 241.342 121.419 255.068C92.1497 276.403 63.3139 301.626 53.1642 337.71C39.6312 385.81 43.6405 443.072 71.0315 485.85C91.4995 517.768 126.536 527.352 162.692 527.99C196.813 528.604 238.544 519.984 270.39 535.552C324.642 562.039 396.232 591.778 456.938 570.817C519.546 549.205 550.212 507.113 559.278 452.512C568.344 397.91 543.361 352.423 535.39 309.236C530.43 281.917 527.143 251.757 518.594 224.546Z" fill="white"/>
<path d="M391.475 194.59L392.27 199.345L397.567 199.815L399.157 195.312C400.894 195.156 402.605 194.784 404.25 194.204L407.597 197.6L412.196 194.939L410.932 190.364C412.263 189.231 413.448 187.937 414.459 186.511L419.131 187.378L421.382 182.562L417.71 179.54C418.146 177.848 418.368 176.109 418.372 174.362L422.731 172.388L421.804 167.151L416.988 166.777C416.377 165.166 415.568 163.638 414.58 162.226L417.06 158.036L413.304 154.28L409.09 156.784C406.66 155.144 403.918 154.025 401.035 153.497L399.831 148.681H394.509L393.305 153.497C391.644 153.804 390.027 154.314 388.489 155.014L384.697 151.727L380.338 154.773L382.132 159.469C380.961 160.662 379.938 161.992 379.086 163.43L374.077 162.912L372.259 167.909L376.401 170.714C376.207 171.88 376.11 173.06 376.112 174.242C376.112 174.748 376.112 175.241 376.112 175.735L371.766 178.143L373.138 183.272L378.063 183.212C378.794 184.746 379.704 186.188 380.772 187.51L378.64 191.941L382.71 195.348L386.731 192.639M408.813 167.813C410.238 170.348 410.789 173.282 410.38 176.161C409.972 179.041 408.627 181.706 406.554 183.745C404.48 185.785 401.793 187.084 398.907 187.444C396.021 187.804 393.097 187.204 390.585 185.737C388.074 184.27 386.116 182.016 385.013 179.325C383.91 176.634 383.724 173.655 384.482 170.847C385.241 168.04 386.903 165.56 389.211 163.791C391.519 162.021 394.346 161.061 397.254 161.058C397.891 161.057 398.527 161.105 399.157 161.203M403.648 162.696C404.666 163.259 405.606 163.956 406.441 164.767" stroke="black" stroke-width="1.204" stroke-miterlimit="10"/>
<path d="M404.016 465.779L404.81 470.535L410.108 471.004L411.697 466.502C413.434 466.345 415.145 465.973 416.79 465.394L420.137 468.789L424.737 466.128L423.533 461.553C424.864 460.42 426.049 459.126 427.06 457.7L431.732 458.567L433.983 453.751L430.371 450.729C430.807 449.038 431.029 447.298 431.034 445.552L435.392 443.577L434.465 438.34L429.649 437.967C429.043 436.354 428.233 434.824 427.241 433.416L429.721 429.226L425.965 425.469L421.751 427.974C419.322 426.334 416.579 425.214 413.696 424.687L412.492 419.871H407.17L405.966 424.687C404.305 424.994 402.688 425.503 401.15 426.204L397.322 422.953L392.963 425.999L394.757 430.695C393.586 431.888 392.563 433.218 391.711 434.656L386.702 434.138L384.884 439.135L389.026 441.94C388.832 443.106 388.735 444.286 388.737 445.468C388.737 445.973 388.737 446.467 388.737 446.961L384.391 449.369L385.763 454.498L390.688 454.437C391.419 455.971 392.329 457.414 393.397 458.736L391.302 463.191L395.371 466.598L399.32 463.78M421.402 438.954C422.827 441.489 423.378 444.423 422.969 447.303C422.561 450.182 421.216 452.847 419.143 454.887C417.069 456.926 414.382 458.226 411.496 458.586C408.61 458.946 405.685 458.346 403.174 456.878C400.663 455.411 398.705 453.158 397.602 450.467C396.499 447.776 396.312 444.796 397.071 441.989C397.83 439.181 399.492 436.701 401.8 434.932C404.108 433.163 406.935 432.202 409.843 432.2C410.48 432.198 411.116 432.247 411.746 432.344M416.236 433.837C417.255 434.4 418.194 435.097 419.03 435.908" stroke="black" stroke-width="1.204" stroke-miterlimit="10"/>
<path d="M429.833 137.544L430.531 139.374C430.182 139.724 429.845 140.097 429.52 140.47M427.75 142.878C427.654 143.023 427.569 143.167 427.485 143.311L422.476 142.806L420.658 147.79L424.8 150.596C424.602 151.761 424.502 152.941 424.499 154.123C424.499 154.629 424.499 155.123 424.499 155.616L420.141 158.024L421.525 163.153H426.45C427.174 164.695 428.084 166.142 429.159 167.464L427.028 171.882L431.097 175.302L435.046 172.472C436.54 173.333 438.133 174.008 439.79 174.483L440.585 179.239L445.87 179.696L447.471 175.193C449.208 175.041 450.919 174.673 452.564 174.098L455.899 177.481L460.499 174.832L459.295 170.257C460.623 169.121 461.808 167.828 462.822 166.404L467.494 167.259L469.745 162.443L466.073 159.409C466.503 157.721 466.725 155.986 466.735 154.244L471.094 152.257L470.167 147.032L465.351 146.659C464.737 145.045 463.928 143.513 462.943 142.095L465.423 137.918L461.667 134.161L457.453 136.665C455.029 135.015 452.284 133.895 449.398 133.378L448.194 128.562H442.884L441.68 133.378C440.02 133.691 438.404 134.201 436.864 134.896L433.06 131.609L428.713 134.655L429.267 136.1M458.584 156.856C458.405 157.729 458.135 158.581 457.778 159.397M456.778 161.263C455.067 163.952 452.444 165.933 449.39 166.844C446.337 167.754 443.057 167.534 440.153 166.222C437.249 164.91 434.915 162.595 433.58 159.701C432.245 156.807 431.998 153.529 432.884 150.468C433.77 147.408 435.731 144.769 438.405 143.036C441.08 141.304 444.29 140.594 447.445 141.037C450.601 141.479 453.492 143.045 455.586 145.447C457.681 147.848 458.839 150.925 458.849 154.111C458.849 154.432 458.849 154.758 458.849 155.087" stroke="black" stroke-width="1.204" stroke-miterlimit="10"/>
<path d="M112.249 301.348L108.263 309.62L115.873 316.001L123.241 310.716C126.036 312.331 129.02 313.593 132.127 314.472L133.595 323.358L143.492 324.224L146.466 315.796C149.715 315.507 152.914 314.811 155.99 313.726L162.227 320.071L170.823 315.11L168.415 306.562C170.907 304.434 173.127 302.008 175.025 299.338L183.754 300.939L187.956 291.945L181.105 286.286C181.904 283.138 182.308 279.902 182.309 276.654L190.448 272.946L188.727 263.17L179.745 262.471C178.597 259.463 177.089 256.605 175.254 253.959L179.877 246.133L172.858 239.114L164.972 243.797C160.442 240.716 155.314 238.623 149.922 237.657L147.646 228.651H137.713L135.426 237.705C132.349 238.294 129.354 239.248 126.504 240.546L119.4 234.406L111.273 240.101L114.62 248.878C112.437 251.109 110.525 253.59 108.926 256.271L99.5704 255.307L96.1752 264.638L103.917 269.888C103.549 272.068 103.364 274.275 103.363 276.486C103.363 277.425 103.399 278.352 103.471 279.267L95.3203 283.818L97.8969 293.45L107.107 293.342C108.126 295.511 109.334 297.586 110.719 299.542M134.486 253.164C135.568 252.785 136.674 252.479 137.797 252.249M143.914 251.768C149.979 252.048 155.73 254.546 160.075 258.788C164.419 263.03 167.054 268.72 167.478 274.777C167.902 280.834 166.087 286.836 162.376 291.642C158.666 296.448 153.319 299.724 147.352 300.847C141.385 301.97 135.213 300.861 130.01 297.732C124.806 294.603 120.933 289.672 119.127 283.875C117.321 278.078 117.707 271.82 120.213 266.289C122.718 260.758 127.168 256.34 132.717 253.875" stroke="black" stroke-width="1.204" stroke-miterlimit="10"/>
<path d="M239.45 274.62L229.602 268.263" stroke="#263238" stroke-width="3.612" stroke-linecap="round" stroke-linejoin="round"/>
<path d="M256.56 255.501L254.008 253.37" stroke="#263238" stroke-width="3.612" stroke-linecap="round" stroke-linejoin="round"/>
<path d="M227.806 311.559L207.422 306.454" stroke="#263238" stroke-width="3.612" stroke-linecap="round" stroke-linejoin="round"/>
<path d="M337.971 436.847C337.82 436.846 337.671 436.826 337.525 436.787C337.056 436.665 336.653 436.362 336.406 435.944C335.78 434.849 335.442 434.259 340.523 428.431C329.567 435.138 328.399 434.861 327.761 434.704C327.261 434.557 326.833 434.231 326.557 433.789C325.546 432.043 325.353 431.694 345.628 415.103C342.377 417.21 338.994 419.474 335.996 421.472C318.153 433.38 312.603 436.763 310.146 436.197C309.849 436.129 309.568 436.002 309.322 435.821C309.075 435.641 308.868 435.413 308.714 435.15C307.63 433.271 307.63 433.271 331.59 415.958L336.333 412.539C333.564 414.381 330.807 416.259 328.279 417.981C309.424 430.803 300.839 436.342 297.625 435.619C297.289 435.544 296.974 435.397 296.7 435.189C296.426 434.982 296.199 434.718 296.035 434.415C294.831 432.38 294.591 431.923 329.434 408.252L283.61 434.74C283.202 434.967 282.721 435.025 282.271 434.902C281.82 434.778 281.437 434.482 281.202 434.078C280.396 432.681 281.022 430.972 284.333 428.058C279.059 431.092 276.001 432.308 274.496 431.959C274.183 431.887 273.887 431.753 273.627 431.565C273.366 431.376 273.146 431.138 272.979 430.863C271.98 429.13 272.365 427.528 285.115 418.956C271.968 427.179 267.115 429.599 265.225 429.154C264.944 429.088 264.68 428.965 264.448 428.793C264.216 428.621 264.021 428.404 263.877 428.154C262.998 426.649 263.816 426.108 266.838 424.109L273.497 419.763L283.682 413.177C272.461 419.004 270.776 418.607 269.836 418.378C269.52 418.306 269.222 418.171 268.959 417.98C268.696 417.79 268.474 417.548 268.307 417.27C268.085 416.862 268.029 416.384 268.15 415.936C268.271 415.488 268.56 415.103 268.958 414.862C304.295 393.913 358.848 360.309 371.996 349.196C358.884 355.156 319.682 379.501 297.348 393.407C268.584 411.286 268.452 411.25 267.248 410.937C266.999 410.881 266.764 410.776 266.557 410.627C266.35 410.478 266.176 410.289 266.044 410.07C265.069 408.385 265.117 407.301 276.627 400.173C271.329 402.666 267.838 403.785 266.297 403.424C265.959 403.345 265.642 403.198 265.364 402.991C265.087 402.783 264.855 402.521 264.683 402.22C264.453 401.82 264.386 401.346 264.495 400.898C264.605 400.449 264.884 400.061 265.273 399.812C300.936 377.093 351.106 344.922 371.574 331.329C365.88 334.23 358.234 338.553 349.734 343.646C342.859 348.064 334.708 353.205 325.064 359.201C312.326 367.136 299.443 374.998 288.715 381.499C262.805 397.85 262.492 397.777 261.228 397.464C260.979 397.405 260.745 397.296 260.538 397.145C260.331 396.995 260.157 396.804 260.024 396.586C259.802 396.178 259.745 395.7 259.866 395.251C259.988 394.803 260.277 394.418 260.674 394.178C268.476 389.542 277.085 384.377 286.018 378.959L290.714 375.997C272.004 386.701 261.661 391.384 258.615 390.638C258.263 390.569 257.929 390.426 257.637 390.219C257.344 390.011 257.099 389.743 256.918 389.434C255.798 387.507 257.387 385.051 270.583 376.431C262.071 381.62 258.699 383.161 257.267 382.812C256.993 382.75 256.736 382.633 256.51 382.467C256.284 382.301 256.095 382.091 255.954 381.849C255.196 380.536 254.582 379.441 263.395 373.047C258.651 375.455 255.653 376.431 254.221 376.081C253.896 376.011 253.589 375.874 253.32 375.679C253.05 375.485 252.824 375.236 252.655 374.95C252.534 374.743 252.456 374.513 252.425 374.276C252.394 374.038 252.411 373.796 252.475 373.565C252.602 373.104 252.904 372.71 253.318 372.469C292.387 350.256 351.552 315.075 369.564 300.88C349.806 311.788 295.337 343.766 257.327 366.305C257.122 366.426 256.894 366.505 256.658 366.538C256.422 366.571 256.182 366.557 255.951 366.496C255.721 366.436 255.504 366.33 255.315 366.186C255.125 366.042 254.966 365.861 254.847 365.655C254.662 365.324 254.546 364.959 254.507 364.583C254.468 364.206 254.505 363.825 254.618 363.463C255.288 361.937 256.302 360.585 257.58 359.514C254.774 360.658 252.896 361.08 251.825 360.815C251.491 360.733 251.178 360.585 250.905 360.378C250.632 360.171 250.404 359.909 250.235 359.611C249.152 357.744 251.223 356.3 254.353 354.12C256.761 352.495 260.168 350.244 264.936 347.258C273.834 341.695 286.042 334.327 298.973 326.537C313.506 317.772 330.771 307.357 344.484 298.736C315.143 315.592 268.933 342.586 246.744 355.565C246.323 355.804 245.827 355.868 245.359 355.746C245.13 355.685 244.914 355.58 244.726 355.435C244.538 355.29 244.381 355.109 244.263 354.903C243.336 353.29 243.059 352.82 259.012 342.779C252.764 346.21 248.815 347.691 246.804 347.222C246.424 347.142 246.065 346.985 245.75 346.759C245.435 346.533 245.171 346.243 244.974 345.909C243.77 343.838 243.77 343.838 272.738 327.018C286.139 319.241 302.128 309.946 316.841 301.012C329.194 292.801 338.862 286.564 346.194 282.23C350.04 279.671 353.69 276.83 357.114 273.729C342.076 280.484 282.695 316.387 245.142 339.745C244.737 340 244.246 340.084 243.779 339.978C243.312 339.872 242.906 339.584 242.65 339.179C242.395 338.773 242.311 338.283 242.417 337.815C242.523 337.348 242.81 336.942 243.216 336.687L254.871 329.27C245.239 334.218 241.627 335.049 240.146 334.676C239.81 334.598 239.494 334.45 239.218 334.243C238.942 334.035 238.713 333.773 238.544 333.472C238.311 333.072 238.242 332.598 238.352 332.148C238.462 331.699 238.743 331.31 239.134 331.064L264.792 314.617C243.818 326.465 242.12 326.043 241.085 325.778C240.81 325.714 240.55 325.595 240.322 325.427C240.095 325.259 239.904 325.047 239.761 324.803C239.535 324.399 239.473 323.925 239.588 323.477C239.702 323.029 239.983 322.642 240.375 322.395C267.416 305.671 305.836 281.459 328.267 266.277C310.146 276.715 283.719 292.223 265.129 303.155L244.408 315.195C239.809 317.88 237.581 319.192 236.389 319.794L236.076 319.987C235.246 320.384 235.041 320.324 234.692 320.228C234.352 320.137 234.046 319.949 233.811 319.687C233.577 319.425 233.424 319.1 233.372 318.752C233.319 318.404 233.37 318.049 233.516 317.729C233.663 317.41 233.9 317.14 234.198 316.953C262.877 299.218 305.234 272.489 324.209 259.342C314.108 265.193 299.021 274.813 286.885 282.579C252.86 304.251 242.518 310.487 239.52 309.741C239.235 309.673 238.966 309.549 238.73 309.375C238.495 309.201 238.296 308.982 238.147 308.73C237.401 307.417 236.859 306.49 248.164 298.339C245.082 299.7 242.999 300.217 241.783 299.928C241.439 299.85 241.115 299.703 240.829 299.496C240.544 299.289 240.303 299.027 240.122 298.724C239.898 298.321 239.836 297.849 239.948 297.402C240.06 296.955 240.337 296.567 240.724 296.316C262.938 282.338 296.698 260.425 308.304 251.359C298.142 256.332 275.965 270.623 262.913 278.979C241.591 292.572 240.796 292.909 239.435 292.572C239.186 292.514 238.951 292.406 238.744 292.255C238.537 292.104 238.363 291.913 238.231 291.693C237.268 290.044 236.425 288.575 257.303 274.223C254.726 275.86 252.089 277.558 249.393 279.292C249.17 279.472 248.908 279.6 248.629 279.665C248.349 279.729 248.059 279.729 247.779 279.665C247.542 279.608 247.319 279.503 247.124 279.356C246.929 279.209 246.767 279.023 246.647 278.81C245.359 276.583 247.213 274.668 261.866 263.435C261.597 263.378 261.343 263.265 261.121 263.103C260.899 262.941 260.714 262.734 260.578 262.496C260.354 262.081 260.301 261.595 260.429 261.141C260.557 260.688 260.857 260.301 261.264 260.064C261.602 259.879 261.988 259.799 262.372 259.835C264.276 258.729 266.121 257.524 267.898 256.223C273.774 252.093 275.435 251.106 276.868 251.407C277.148 251.468 277.412 251.586 277.644 251.754C277.876 251.922 278.071 252.136 278.216 252.382C279.252 254.188 278.445 255.272 268.584 262.905C271.329 261.208 274.159 259.45 277.012 257.716C304.849 240.692 307.004 241.197 308.316 241.51C308.605 241.572 308.878 241.695 309.116 241.869C309.355 242.043 309.554 242.265 309.701 242.522C309.927 242.924 309.991 243.398 309.879 243.845C309.767 244.293 309.488 244.681 309.099 244.93C295.518 253.358 281.407 262.484 269.572 270.37C297.047 252.828 310.255 245.086 313.975 246.025C314.298 246.097 314.602 246.235 314.869 246.43C315.137 246.624 315.361 246.872 315.528 247.157C316.672 249.144 317.503 250.588 279.493 275.608L274.026 279.22C281.684 274.404 289.438 269.347 295.698 265.253C320.079 249.433 324.028 247.109 325.871 247.542C326.123 247.608 326.36 247.725 326.567 247.884C326.773 248.043 326.946 248.242 327.075 248.469C327.305 248.87 327.372 249.343 327.262 249.792C327.153 250.24 326.874 250.629 326.485 250.877C302.91 265.903 268.476 288.334 251.451 300.386C260.602 294.992 273.569 286.721 284.862 279.521C320.657 256.645 332.336 249.722 335.635 250.516C335.93 250.587 336.208 250.716 336.452 250.896C336.696 251.076 336.901 251.303 337.056 251.564C337.935 253.093 338.573 254.176 317.635 268.155C346.977 251.13 347.543 251.299 348.47 251.516C348.705 251.576 348.927 251.683 349.121 251.83C349.315 251.976 349.479 252.16 349.601 252.37C350.805 254.453 351.66 255.982 296.3 291.356C292.279 293.932 288.246 296.497 284.26 299.001C306.173 286.046 332.288 270.105 352.07 257.752C352.277 257.626 352.507 257.542 352.746 257.505C352.986 257.467 353.231 257.478 353.466 257.536C353.94 257.656 354.347 257.959 354.598 258.378C355.453 259.871 354.189 260.786 352.852 261.701C352.034 262.267 350.83 263.086 349.24 264.109C346.327 266.048 342.016 268.925 336.454 272.537C327.087 278.642 313.999 287.106 297.553 297.701C281.708 307.899 265.743 318.169 254.798 325.164C269.259 317.519 297.384 301 351.564 266.385C359.366 261.412 359.366 261.412 360.161 261.569C360.399 261.628 360.623 261.733 360.819 261.88C361.016 262.027 361.181 262.212 361.304 262.424C361.75 263.194 362.003 263.628 360.558 264.916C358.631 266.602 353.84 269.732 342.907 276.836C358.391 268.347 359.835 268.697 360.775 268.937C361.048 268.999 361.305 269.116 361.531 269.282C361.757 269.448 361.946 269.658 362.087 269.901C362.737 271.032 362.894 272.393 360.486 275.09C361.435 274.793 362.44 274.719 363.423 274.873C363.816 274.955 364.187 275.118 364.513 275.353C364.839 275.587 365.111 275.887 365.314 276.234C366.518 278.305 367.12 279.364 331.349 301.927C369.227 279.99 369.6 280.086 370.503 280.327C370.735 280.386 370.952 280.491 371.142 280.636C371.333 280.781 371.492 280.962 371.611 281.17C372.815 283.169 370.647 285.179 365.47 288.96C362.135 291.368 357.427 294.547 351.118 298.592C372.152 285.456 377.426 282.735 379.304 283.193C379.57 283.257 379.82 283.375 380.039 283.538C380.258 283.702 380.442 283.908 380.58 284.144C380.701 284.349 380.779 284.576 380.81 284.812C380.841 285.048 380.825 285.287 380.761 285.517C380.7 285.749 380.593 285.967 380.446 286.157C380.299 286.347 380.116 286.506 379.906 286.624C367.625 293.583 355.14 300.783 343.076 307.887L330.578 315.785C306.005 331.341 288.077 342.526 275.495 349.846C271.51 352.579 268.103 355.011 265.37 357.07C276.567 350.448 295.638 339.191 314.734 328.054C374.934 292.825 375.849 293.078 376.992 293.379C377.228 293.439 377.45 293.546 377.644 293.693C377.838 293.839 378.001 294.023 378.124 294.233C378.298 294.542 378.408 294.882 378.448 295.234C378.487 295.585 378.455 295.941 378.353 296.28C377.998 297.446 377.317 298.486 376.39 299.278C380.52 297.219 383.109 296.377 384.385 296.678C384.695 296.749 384.988 296.883 385.245 297.071C385.501 297.26 385.717 297.498 385.878 297.773C386.841 299.435 385.493 300.338 382.519 302.312C380.725 303.516 378.076 305.19 374.404 307.477L373.693 307.923C379.304 305.238 383.241 303.974 385.216 304.455C385.619 304.539 386.001 304.705 386.336 304.943C386.672 305.181 386.955 305.487 387.166 305.84C388.828 308.718 387.166 310.548 328.423 345.295C303.753 359.996 271.161 379.26 262.275 386.484C267.176 384.762 279.384 378.863 309.725 360.502C334.455 345.536 361.69 328.066 374.741 319.674C383.807 313.859 383.795 313.871 384.602 314.063C385.081 314.185 385.493 314.493 385.746 314.918C386.48 316.194 387.226 317.483 377.318 324.863C378.717 324.231 380.254 323.966 381.784 324.093C382.121 324.172 382.438 324.32 382.716 324.527C382.994 324.734 383.226 324.996 383.398 325.297C384.457 327.139 384.457 327.139 364.977 339.901C355.345 346.186 341.98 354.867 325.124 365.703C308.87 376.154 292.484 386.64 281.262 393.804C303.994 381.62 346.591 354.602 365.542 342.586C382.398 331.931 382.398 331.931 383.313 332.159C383.549 332.22 383.771 332.327 383.965 332.474C384.159 332.62 384.322 332.804 384.445 333.014C385.733 335.254 383.687 338.432 375.764 344.32C375.996 344.287 376.231 344.287 376.463 344.32C376.758 344.39 377.035 344.519 377.279 344.699C377.523 344.879 377.729 345.107 377.883 345.367C379.148 347.559 380.58 350.039 327.147 383.498C342.51 374.035 358.451 363.969 371.322 355.625C371.527 355.491 371.759 355.4 372.001 355.359C372.243 355.317 372.491 355.325 372.73 355.383C372.969 355.44 373.194 355.546 373.39 355.693C373.587 355.84 373.752 356.026 373.874 356.239C374.753 357.781 373.537 358.647 371.466 360.092C370.262 360.947 368.444 362.199 366.06 363.789C363.676 365.378 360.714 367.401 357.138 369.712C362.123 367.184 365.205 366.16 366.77 366.546C367.11 366.622 367.43 366.769 367.71 366.976C367.99 367.184 368.224 367.447 368.396 367.75C369.407 369.496 369.178 370.158 356.994 378.032C359.559 376.936 361.377 376.539 362.544 376.828C362.907 376.906 363.25 377.059 363.55 377.276C363.851 377.494 364.103 377.772 364.29 378.092C365.711 380.5 364.639 381.632 332.011 401.389C322.668 407.048 310.905 414.164 301.381 420.304L365.446 383.329C365.651 383.208 365.878 383.129 366.114 383.098C366.35 383.067 366.59 383.085 366.819 383.149C367.279 383.272 367.672 383.57 367.914 383.98C368.805 385.533 367.541 386.46 365.446 388.001C364.182 388.928 362.328 390.24 359.775 391.998C355.019 395.297 348.409 399.764 341.414 404.508C333.263 410.022 323.005 416.969 314.601 422.809C318.466 420.256 322.487 417.523 326.063 415.091C344.689 402.425 352.551 397.356 355.621 398.03C355.943 398.101 356.247 398.237 356.514 398.429C356.781 398.622 357.006 398.867 357.175 399.15C358.222 400.98 358.27 401.064 336.911 416.536C352.407 406.23 357.476 403.292 359.787 403.81C360.085 403.877 360.365 404.005 360.612 404.185C360.858 404.365 361.065 404.594 361.22 404.857C362.063 406.326 362.063 406.326 351.287 415.127C348.036 417.776 343.521 421.46 339.452 424.867C342.751 422.833 346.387 420.521 349.842 418.282C350.048 418.147 350.279 418.057 350.521 418.015C350.764 417.973 351.012 417.981 351.251 418.039C351.49 418.096 351.714 418.202 351.911 418.349C352.108 418.497 352.272 418.682 352.395 418.896C353.069 420.1 352.816 420.34 350.348 422.989C348.337 425.144 346.616 427.035 345.159 428.648C356.091 422.134 356.488 422.243 357.259 422.435C357.493 422.496 357.713 422.603 357.905 422.75C358.097 422.897 358.258 423.08 358.379 423.29C358.499 423.495 358.577 423.722 358.609 423.958C358.641 424.194 358.626 424.433 358.564 424.663C358.502 424.893 358.396 425.108 358.25 425.296C358.105 425.484 357.923 425.641 357.716 425.758C357.542 425.864 357.35 425.937 357.151 425.975C355.549 426.698 346.652 431.935 338.814 436.679C338.549 436.799 338.261 436.857 337.971 436.847ZM355.345 425.012C355.536 425.335 355.821 425.591 356.163 425.746C355.824 425.587 355.54 425.332 355.345 425.012ZM310.893 406.627C300.49 413.116 290.256 419.618 283.586 424.253C290.846 419.931 301.393 412.972 310.893 406.627ZM355.67 374.564C343.858 381.114 324.751 393.419 310.231 402.798C315.576 399.463 321.669 395.695 328.592 391.432C338.127 385.569 348.397 379.26 355.67 374.564ZM354.899 382.992C348.482 386.412 338.741 392.624 329.242 398.825L330.241 398.223C339.115 392.829 348.747 386.99 354.899 382.968V382.992ZM295.698 355.951C287.752 360.923 280.528 365.607 274.508 369.628C280.745 365.643 288.137 360.863 295.698 355.951ZM381.411 308.597C377.92 309.801 370.515 313.172 354.851 322.576C339.187 331.979 320.26 344.344 303.404 355.3C296.048 360.116 289.859 364.09 284.634 367.437C294.771 361.2 308.389 353.049 326.581 342.285C348.723 329.149 373.477 314.509 381.411 308.597ZM370.106 343.923L367.553 345.548C359.125 350.902 351.143 355.938 343.606 360.658C353.659 354.614 363.158 348.702 370.106 343.923ZM290.256 335.916C279.216 342.586 268.488 349.16 261.36 353.651C264.972 351.809 269.319 349.341 274.231 346.427C279.059 343.14 284.465 339.588 290.256 335.916ZM318.526 304.106C313.903 307.189 309.352 310.247 305.09 313.1C296.662 318.783 289.173 323.743 282.683 328.006L289.317 323.912C313.698 308.886 348.903 287.166 359.258 279.292C355.428 281.004 351.715 282.966 348.145 285.167C344.027 288.045 338.79 291.5 332.155 295.69C327.833 298.399 323.246 301.217 318.526 304.082V304.106Z" fill="#F5C518"/>
<g opacity="0.4">
<path d="M337.971 436.847C337.82 436.846 337.671 436.826 337.525 436.787C337.056 436.665 336.653 436.362 336.406 435.944C335.78 434.849 335.442 434.259 340.523 428.431C329.567 435.138 328.399 434.861 327.761 434.704C327.261 434.557 326.833 434.231 326.557 433.789C325.546 432.043 325.353 431.694 345.628 415.103C342.377 417.21 338.994 419.474 335.996 421.472C318.153 433.38 312.603 436.763 310.146 436.197C309.849 436.129 309.568 436.002 309.322 435.821C309.075 435.641 308.868 435.413 308.714 435.15C307.63 433.271 307.63 433.271 331.59 415.958L336.333 412.539C333.564 414.381 330.807 416.259 328.279 417.981C309.424 430.803 300.839 436.342 297.625 435.619C297.289 435.544 296.974 435.397 296.7 435.189C296.426 434.982 296.199 434.718 296.035 434.415C294.831 432.38 294.591 431.923 329.434 408.252L283.61 434.74C283.202 434.967 282.721 435.025 282.271 434.902C281.82 434.778 281.437 434.482 281.202 434.078C280.396 432.681 281.022 430.972 284.333 428.058C279.059 431.092 276.001 432.308 274.496 431.959C274.183 431.887 273.887 431.753 273.627 431.565C273.366 431.376 273.146 431.138 272.979 430.863C271.98 429.13 272.365 427.528 285.115 418.956C271.968 427.179 267.115 429.599 265.225 429.154C264.944 429.088 264.68 428.965 264.448 428.793C264.216 428.621 264.021 428.404 263.877 428.154C262.998 426.649 263.816 426.108 266.838 424.109L273.497 419.763L283.682 413.177C272.461 419.004 270.776 418.607 269.836 418.378C269.52 418.306 269.222 418.171 268.959 417.98C268.696 417.79 268.474 417.548 268.307 417.27C268.085 416.862 268.029 416.384 268.15 415.936C268.271 415.488 268.56 415.103 268.958 414.862C304.295 393.913 358.848 360.309 371.996 349.196C358.884 355.156 319.682 379.501 297.348 393.407C268.584 411.286 268.452 411.25 267.248 410.937C266.999 410.881 266.764 410.776 266.557 410.627C266.35 410.478 266.176 410.289 266.044 410.07C265.069 408.385 265.117 407.301 276.627 400.173C271.329 402.666 267.838 403.785 266.297 403.424C265.959 403.345 265.642 403.198 265.364 402.991C265.087 402.783 264.855 402.521 264.683 402.22C264.453 401.82 264.386 401.346 264.495 400.898C264.605 400.449 264.884 400.061 265.273 399.812C300.936 377.093 351.106 344.922 371.574 331.329C365.88 334.23 358.234 338.553 349.734 343.646C342.859 348.064 334.708 353.205 325.064 359.201C312.326 367.136 299.443 374.998 288.715 381.499C262.805 397.85 262.492 397.777 261.228 397.464C260.979 397.405 260.745 397.296 260.538 397.145C260.331 396.995 260.157 396.804 260.024 396.586C259.802 396.178 259.745 395.7 259.866 395.251C259.988 394.803 260.277 394.418 260.674 394.178C268.476 389.542 277.085 384.377 286.018 378.959L290.714 375.997C272.004 386.701 261.661 391.384 258.615 390.638C258.263 390.569 257.929 390.426 257.637 390.219C257.344 390.011 257.099 389.743 256.918 389.434C255.798 387.507 257.387 385.051 270.583 376.431C262.071 381.62 258.699 383.161 257.267 382.812C256.993 382.75 256.736 382.633 256.51 382.467C256.284 382.301 256.095 382.091 255.954 381.849C255.196 380.536 254.582 379.441 263.395 373.047C258.651 375.455 255.653 376.431 254.221 376.081C253.896 376.011 253.589 375.874 253.32 375.679C253.05 375.485 252.824 375.236 252.655 374.95C252.534 374.743 252.456 374.513 252.425 374.276C252.394 374.038 252.411 373.796 252.475 373.565C252.602 373.104 252.904 372.71 253.318 372.469C292.387 350.256 351.552 315.075 369.564 300.88C349.806 311.788 295.337 343.766 257.327 366.305C257.122 366.426 256.894 366.505 256.658 366.538C256.422 366.571 256.182 366.557 255.951 366.496C255.721 366.436 255.504 366.33 255.315 366.186C255.125 366.042 254.966 365.861 254.847 365.655C254.662 365.324 254.546 364.959 254.507 364.583C254.468 364.206 254.505 363.825 254.618 363.463C255.288 361.937 256.302 360.585 257.58 359.514C254.774 360.658 252.896 361.08 251.825 360.815C251.491 360.733 251.178 360.585 250.905 360.378C250.632 360.171 250.404 359.909 250.235 359.611C249.152 357.744 251.223 356.3 254.353 354.12C256.761 352.495 260.168 350.244 264.936 347.258C273.834 341.695 286.042 334.327 298.973 326.537C313.506 317.772 330.771 307.357 344.484 298.736C315.143 315.592 268.933 342.586 246.744 355.565C246.323 355.804 245.827 355.868 245.359 355.746C245.13 355.685 244.914 355.58 244.726 355.435C244.538 355.29 244.381 355.109 244.263 354.903C243.336 353.29 243.059 352.82 259.012 342.779C252.764 346.21 248.815 347.691 246.804 347.222C246.424 347.142 246.065 346.985 245.75 346.759C245.435 346.533 245.171 346.243 244.974 345.909C243.77 343.838 243.77 343.838 272.738 327.018C286.139 319.241 302.128 309.946 316.841 301.012C329.194 292.801 338.862 286.564 346.194 282.23C350.04 279.671 353.69 276.83 357.114 273.729C342.076 280.484 282.695 316.387 245.142 339.745C244.737 340 244.246 340.084 243.779 339.978C243.312 339.872 242.906 339.584 242.65 339.179C242.395 338.773 242.311 338.283 242.417 337.815C242.523 337.348 242.81 336.942 243.216 336.687L254.871 329.27C245.239 334.218 241.627 335.049 240.146 334.676C239.81 334.598 239.494 334.45 239.218 334.243C238.942 334.035 238.713 333.773 238.544 333.472C238.311 333.072 238.242 332.598 238.352 332.148C238.462 331.699 238.743 331.31 239.134 331.064L264.792 314.617C243.818 326.465 242.12 326.043 241.085 325.778C240.81 325.714 240.55 325.595 240.322 325.427C240.095 325.259 239.904 325.047 239.761 324.803C239.535 324.399 239.473 323.925 239.588 323.477C239.702 323.029 239.983 322.642 240.375 322.395C267.416 305.671 305.836 281.459 328.267 266.277C310.146 276.715 283.719 292.223 265.129 303.155L244.408 315.195C239.809 317.88 237.581 319.192 236.389 319.794L236.076 319.987C235.246 320.384 235.041 320.324 234.692 320.228C234.352 320.137 234.046 319.949 233.811 319.687C233.577 319.425 233.424 319.1 233.372 318.752C233.319 318.404 233.37 318.049 233.516 317.729C233.663 317.41 233.9 317.14 234.198 316.953C262.877 299.218 305.234 272.489 324.209 259.342C314.108 265.193 299.021 274.813 286.885 282.579C252.86 304.251 242.518 310.487 239.52 309.741C239.235 309.673 238.966 309.549 238.73 309.375C238.495 309.201 238.296 308.982 238.147 308.73C237.401 307.417 236.859 306.49 248.164 298.339C245.082 299.7 242.999 300.217 241.783 299.928C241.439 299.85 241.115 299.703 240.829 299.496C240.544 299.289 240.303 299.027 240.122 298.724C239.898 298.321 239.836 297.849 239.948 297.402C240.06 296.955 240.337 296.567 240.724 296.316C262.938 282.338 296.698 260.425 308.304 251.359C298.142 256.332 275.965 270.623 262.913 278.979C241.591 292.572 240.796 292.909 239.435 292.572C239.186 292.514 238.951 292.406 238.744 292.255C238.537 292.104 238.363 291.913 238.231 291.693C237.268 290.044 236.425 288.575 257.303 274.223C254.726 275.86 252.089 277.558 249.393 279.292C249.17 279.472 248.908 279.6 248.629 279.665C248.349 279.729 248.059 279.729 247.779 279.665C247.542 279.608 247.319 279.503 247.124 279.356C246.929 279.209 246.767 279.023 246.647 278.81C245.359 276.583 247.213 274.668 261.866 263.435C261.597 263.378 261.343 263.265 261.121 263.103C260.899 262.941 260.714 262.734 260.578 262.496C260.354 262.081 260.301 261.595 260.429 261.141C260.557 260.688 260.857 260.301 261.264 260.064C261.602 259.879 261.988 259.799 262.372 259.835C264.276 258.729 266.121 257.524 267.898 256.223C273.774 252.093 275.435 251.106 276.868 251.407C277.148 251.468 277.412 251.586 277.644 251.754C277.876 251.922 278.071 252.136 278.216 252.382C279.252 254.188 278.445 255.272 268.584 262.905C271.329 261.208 274.159 259.45 277.012 257.716C304.849 240.692 307.004 241.197 308.316 241.51C308.605 241.572 308.878 241.695 309.116 241.869C309.355 242.043 309.554 242.265 309.701 242.522C309.927 242.924 309.991 243.398 309.879 243.845C309.767 244.293 309.488 244.681 309.099 244.93C295.518 253.358 281.407 262.484 269.572 270.37C297.047 252.828 310.255 245.086 313.975 246.025C314.298 246.097 314.602 246.235 314.869 246.43C315.137 246.624 315.361 246.872 315.528 247.157C316.672 249.144 317.503 250.588 279.493 275.608L274.026 279.22C281.684 274.404 289.438 269.347 295.698 265.253C320.079 249.433 324.028 247.109 325.871 247.542C326.123 247.608 326.36 247.725 326.567 247.884C326.773 248.043 326.946 248.242 327.075 248.469C327.305 248.87 327.372 249.343 327.262 249.792C327.153 250.24 326.874 250.629 326.485 250.877C302.91 265.903 268.476 288.334 251.451 300.386C260.602 294.992 273.569 286.721 284.862 279.521C320.657 256.645 332.336 249.722 335.635 250.516C335.93 250.587 336.208 250.716 336.452 250.896C336.696 251.076 336.901 251.303 337.056 251.564C337.935 253.093 338.573 254.176 317.635 268.155C346.977 251.13 347.543 251.299 348.47 251.516C348.705 251.576 348.927 251.683 349.121 251.83C349.315 251.976 349.479 252.16 349.601 252.37C350.805 254.453 351.66 255.982 296.3 291.356C292.279 293.932 288.246 296.497 284.26 299.001C306.173 286.046 332.288 270.105 352.07 257.752C352.277 257.626 352.507 257.542 352.746 257.505C352.986 257.467 353.231 257.478 353.466 257.536C353.94 257.656 354.347 257.959 354.598 258.378C355.453 259.871 354.189 260.786 352.852 261.701C352.034 262.267 350.83 263.086 349.24 264.109C346.327 266.048 342.016 268.925 336.454 272.537C327.087 278.642 313.999 287.106 297.553 297.701C281.708 307.899 265.743 318.169 254.798 325.164C269.259 317.519 297.384 301 351.564 266.385C359.366 261.412 359.366 261.412 360.161 261.569C360.399 261.628 360.623 261.733 360.819 261.88C361.016 262.027 361.181 262.212 361.304 262.424C361.75 263.194 362.003 263.628 360.558 264.916C358.631 266.602 353.84 269.732 342.907 276.836C358.391 268.347 359.835 268.697 360.775 268.937C361.048 268.999 361.305 269.116 361.531 269.282C361.757 269.448 361.946 269.658 362.087 269.901C362.737 271.032 362.894 272.393 360.486 275.09C361.435 274.793 362.44 274.719 363.423 274.873C363.816 274.955 364.187 275.118 364.513 275.353C364.839 275.587 365.111 275.887 365.314 276.234C366.518 278.305 367.12 279.364 331.349 301.927C369.227 279.99 369.6 280.086 370.503 280.327C370.735 280.386 370.952 280.491 371.142 280.636C371.333 280.781 371.492 280.962 371.611 281.17C372.815 283.169 370.647 285.179 365.47 288.96C362.135 291.368 357.427 294.547 351.118 298.592C372.152 285.456 377.426 282.735 379.304 283.193C379.57 283.257 379.82 283.375 380.039 283.538C380.258 283.702 380.442 283.908 380.58 284.144C380.701 284.349 380.779 284.576 380.81 284.812C380.841 285.048 380.825 285.287 380.761 285.517C380.7 285.749 380.593 285.967 380.446 286.157C380.299 286.347 380.116 286.506 379.906 286.624C367.625 293.583 355.14 300.783 343.076 307.887L330.578 315.785C306.005 331.341 288.077 342.526 275.495 349.846C271.51 352.579 268.103 355.011 265.37 357.07C276.567 350.448 295.638 339.191 314.734 328.054C374.934 292.825 375.849 293.078 376.992 293.379C377.228 293.439 377.45 293.546 377.644 293.693C377.838 293.839 378.001 294.023 378.124 294.233C378.298 294.542 378.408 294.882 378.448 295.234C378.487 295.585 378.455 295.941 378.353 296.28C377.998 297.446 377.317 298.486 376.39 299.278C380.52 297.219 383.109 296.377 384.385 296.678C384.695 296.749 384.988 296.883 385.245 297.071C385.501 297.26 385.717 297.498 385.878 297.773C386.841 299.435 385.493 300.338 382.519 302.312C380.725 303.516 378.076 305.19 374.404 307.477L373.693 307.923C379.304 305.238 383.241 303.974 385.216 304.455C385.619 304.539 386.001 304.705 386.336 304.943C386.672 305.181 386.955 305.487 387.166 305.84C388.828 308.718 387.166 310.548 328.423 345.295C303.753 359.996 271.161 379.26 262.275 386.484C267.176 384.762 279.384 378.863 309.725 360.502C334.455 345.536 361.69 328.066 374.741 319.674C383.807 313.859 383.795 313.871 384.602 314.063C385.081 314.185 385.493 314.493 385.746 314.918C386.48 316.194 387.226 317.483 377.318 324.863C378.717 324.231 380.254 323.966 381.784 324.093C382.121 324.172 382.438 324.32 382.716 324.527C382.994 324.734 383.226 324.996 383.398 325.297C384.457 327.139 384.457 327.139 364.977 339.901C355.345 346.186 341.98 354.867 325.124 365.703C308.87 376.154 292.484 386.64 281.262 393.804C303.994 381.62 346.591 354.602 365.542 342.586C382.398 331.931 382.398 331.931 383.313 332.159C383.549 332.22 383.771 332.327 383.965 332.474C384.159 332.62 384.322 332.804 384.445 333.014C385.733 335.254 383.687 338.432 375.764 344.32C375.996 344.287 376.231 344.287 376.463 344.32C376.758 344.39 377.035 344.519 377.279 344.699C377.523 344.879 377.729 345.107 377.883 345.367C379.148 347.559 380.58 350.039 327.147 383.498C342.51 374.035 358.451 363.969 371.322 355.625C371.527 355.491 371.759 355.4 372.001 355.359C372.243 355.317 372.491 355.325 372.73 355.383C372.969 355.44 373.194 355.546 373.39 355.693C373.587 355.84 373.752 356.026 373.874 356.239C374.753 357.781 373.537 358.647 371.466 360.092C370.262 360.947 368.444 362.199 366.06 363.789C363.676 365.378 360.714 367.401 357.138 369.712C362.123 367.184 365.205 366.16 366.77 366.546C367.11 366.622 367.43 366.769 367.71 366.976C367.99 367.184 368.224 367.447 368.396 367.75C369.407 369.496 369.178 370.158 356.994 378.032C359.559 376.936 361.377 376.539 362.544 376.828C362.907 376.906 363.25 377.059 363.55 377.276C363.851 377.494 364.103 377.772 364.29 378.092C365.711 380.5 364.639 381.632 332.011 401.389C322.668 407.048 310.905 414.164 301.381 420.304L365.446 383.329C365.651 383.208 365.878 383.129 366.114 383.098C366.35 383.067 366.59 383.085 366.819 383.149C367.279 383.272 367.672 383.57 367.914 383.98C368.805 385.533 367.541 386.46 365.446 388.001C364.182 388.928 362.328 390.24 359.775 391.998C355.019 395.297 348.409 399.764 341.414 404.508C333.263 410.022 323.005 416.969 314.601 422.809C318.466 420.256 322.487 417.523 326.063 415.091C344.689 402.425 352.551 397.356 355.621 398.03C355.943 398.101 356.247 398.237 356.514 398.429C356.781 398.622 357.006 398.867 357.175 399.15C358.222 400.98 358.27 401.064 336.911 416.536C352.407 406.23 357.476 403.292 359.787 403.81C360.085 403.877 360.365 404.005 360.612 404.185C360.858 404.365 361.065 404.594 361.22 404.857C362.063 406.326 362.063 406.326 351.287 415.127C348.036 417.776 343.521 421.46 339.452 424.867C342.751 422.833 346.387 420.521 349.842 418.282C350.048 418.147 350.279 418.057 350.521 418.015C350.764 417.973 351.012 417.981 351.251 418.039C351.49 418.096 351.714 418.202 351.911 418.349C352.108 418.497 352.272 418.682 352.395 418.896C353.069 420.1 352.816 420.34 350.348 422.989C348.337 425.144 346.616 427.035 345.159 428.648C356.091 422.134 356.488 422.243 357.259 422.435C357.493 422.496 357.713 422.603 357.905 422.75C358.097 422.897 358.258 423.08 358.379 423.29C358.499 423.495 358.577 423.722 358.609 423.958C358.641 424.194 358.626 424.433 358.564 424.663C358.502 424.893 358.396 425.108 358.25 425.296C358.105 425.484 357.923 425.641 357.716 425.758C357.542 425.864 357.35 425.937 357.151 425.975C355.549 426.698 346.652 431.935 338.814 436.679C338.549 436.799 338.261 436.857 337.971 436.847ZM355.345 425.012C355.536 425.335 355.821 425.591 356.163 425.746C355.824 425.587 355.54 425.332 355.345 425.012ZM310.893 406.627C300.49 413.116 290.256 419.618 283.586 424.253C290.846 419.931 301.393 412.972 310.893 406.627ZM355.67 374.564C343.858 381.114 324.751 393.419 310.231 402.798C315.576 399.463 321.669 395.695 328.592 391.432C338.127 385.569 348.397 379.26 355.67 374.564ZM354.899 382.992C348.482 386.412 338.741 392.624 329.242 398.825L330.241 398.223C339.115 392.829 348.747 386.99 354.899 382.968V382.992ZM295.698 355.951C287.752 360.923 280.528 365.607 274.508 369.628C280.745 365.643 288.137 360.863 295.698 355.951ZM381.411 308.597C377.92 309.801 370.515 313.172 354.851 322.576C339.187 331.979 320.26 344.344 303.404 355.3C296.048 360.116 289.859 364.09 284.634 367.437C294.771 361.2 308.389 353.049 326.581 342.285C348.723 329.149 373.477 314.509 381.411 308.597ZM370.106 343.923L367.553 345.548C359.125 350.902 351.143 355.938 343.606 360.658C353.659 354.614 363.158 348.702 370.106 343.923ZM290.256 335.916C279.216 342.586 268.488 349.16 261.36 353.651C264.972 351.809 269.319 349.341 274.231 346.427C279.059 343.14 284.465 339.588 290.256 335.916ZM318.526 304.106C313.903 307.189 309.352 310.247 305.09 313.1C296.662 318.783 289.173 323.743 282.683 328.006L289.317 323.912C313.698 308.886 348.903 287.166 359.258 279.292C355.428 281.004 351.715 282.966 348.145 285.167C344.027 288.045 338.79 291.5 332.155 295.69C327.833 298.399 323.246 301.217 318.526 304.082V304.106Z" fill="white"/>
</g>
<path d="M312.4 243.871H311.594C267.937 244.677 235.031 278.076 235.031 319.169C235.012 331.44 238.005 343.529 243.748 354.374C246.156 360.093 251.984 374.095 257.751 392.203C263.097 408.915 265.89 425.735 265.89 428.323C265.89 428.564 265.89 428.817 265.89 429.094C265.866 429.85 265.993 430.602 266.266 431.308C266.538 432.013 266.949 432.656 267.474 433.2C268 433.743 268.629 434.176 269.325 434.471C270.021 434.767 270.769 434.92 271.525 434.921H349.712C350.468 434.92 351.216 434.767 351.912 434.471C352.608 434.176 353.237 433.743 353.763 433.2C354.288 432.656 354.699 432.013 354.971 431.308C355.243 430.602 355.371 429.85 355.347 429.094C355.347 428.817 355.347 428.564 355.347 428.323C355.347 425.783 358.14 408.963 363.474 392.203C369.253 374.143 375.02 360.093 377.477 354.374C383.481 343.013 386.479 330.306 386.187 317.459C385.894 304.613 382.319 292.055 375.803 280.98C369.287 269.905 360.046 260.682 348.959 254.186C337.872 247.691 325.307 244.14 312.461 243.871H312.4Z" stroke="#263238" stroke-width="2.408" stroke-linecap="round" stroke-linejoin="round"/>
<path d="M338.772 255.959C336.592 254.979 334.357 254.127 332.078 253.406" stroke="#263238" stroke-width="3.612" stroke-linecap="round" stroke-linejoin="round"/>
<path d="M363.872 275.077C363.872 275.077 357.731 265.325 344.234 258.691" stroke="#263238" stroke-width="3.612" stroke-linecap="round" stroke-linejoin="round"/>
<path d="M305.619 400.775V362.103C305.619 362.103 308.593 343.272 298.804 343.272C289.016 343.272 289.762 353.073 301.056 363.608C312.349 374.143 329.687 364.366 331.95 356.083C334.214 347.799 328.182 344.043 324.413 350.809C320.645 357.576 324.413 434.427 324.413 434.427" stroke="#263238" stroke-width="3.612" stroke-linecap="round" stroke-linejoin="round"/>
<path d="M284.688 224.306L288.853 237.417" stroke="#263238" stroke-width="3.612" stroke-linecap="round" stroke-linejoin="round"/>
<path d="M386.76 252.9L373.047 263.628" stroke="#263238" stroke-width="3.612" stroke-linecap="round" stroke-linejoin="round"/>
<path d="M335.915 214.733L330.75 237.417" stroke="#263238" stroke-width="3.612" stroke-linecap="round" stroke-linejoin="round"/>
<path d="M351.887 440.556H269.305C268.248 440.556 267.391 441.413 267.391 442.47V443.421C267.391 444.478 268.248 445.336 269.305 445.336H351.887C352.945 445.336 353.802 444.478 353.802 443.421V442.47C353.802 441.413 352.945 440.556 351.887 440.556Z" fill="#263238" stroke="#263238" stroke-width="1.204" stroke-linecap="round" stroke-linejoin="round"/>
<path d="M351.887 451.319H269.305C268.248 451.319 267.391 452.176 267.391 453.234V454.185C267.391 455.242 268.248 456.099 269.305 456.099H351.887C352.945 456.099 353.802 455.242 353.802 454.185V453.234C353.802 452.176 352.945 451.319 351.887 451.319Z" fill="#263238" stroke="#263238" stroke-width="1.204" stroke-linecap="round" stroke-linejoin="round"/>
<path d="M351.887 462.083H269.305C268.248 462.083 267.391 462.94 267.391 463.997V464.949C267.391 466.006 268.248 466.863 269.305 466.863H351.887C352.945 466.863 353.802 466.006 353.802 464.949V463.997C353.802 462.94 352.945 462.083 351.887 462.083Z" fill="#263238" stroke="#263238" stroke-width="1.204" stroke-linecap="round" stroke-linejoin="round"/>
<path d="M313.131 472.594H270.727L282.935 489.45C283.982 490.897 285.357 492.075 286.948 492.888C288.538 493.7 290.299 494.123 292.086 494.121H329.41C331.199 494.12 332.963 493.693 334.556 492.877C336.149 492.061 337.525 490.878 338.572 489.426L350.684 472.654L313.131 472.594Z" fill="#263238" stroke="#263238" stroke-width="1.204" stroke-linecap="round" stroke-linejoin="round"/>
<path d="M404.161 292.572C404.161 292.572 396.455 301 390.147 305.19C383.838 309.38 379.443 314.954 385.234 317.808C388.714 319.517 393.662 317.109 393.662 317.109C393.662 317.109 385.945 319.204 384.548 326.224C383.151 333.243 398.514 330.401 398.514 330.401C398.514 330.401 387.305 338.107 390.809 340.912C394.312 343.718 401.32 341.611 404.823 341.611C408.327 341.611 425.857 330.401 430.107 330.401C434.357 330.401 442.725 339.516 442.725 346.523C442.725 353.53 453.898 352.832 455.331 331.1C456.764 309.368 451.129 291.151 442.015 285.54C432.901 279.93 404.161 292.572 404.161 292.572Z" fill="white" stroke="#263238" stroke-width="1.204" stroke-miterlimit="10" stroke-linecap="round"/>
<path d="M399.969 316.375L427.938 305.924C427.938 305.924 440.218 303.263 449.032 317.784" stroke="#263238" stroke-width="1.204" stroke-miterlimit="10" stroke-linecap="round"/>
<path d="M404.867 324.791L430.151 320.589C430.151 320.589 441.372 319.891 448.38 333.207" stroke="#263238" stroke-width="1.204" stroke-miterlimit="10" stroke-linecap="round"/>
<path d="M435.711 341.611L416.784 345.825L427.993 390.674C427.993 390.674 437.818 410.299 440.611 418.715C443.404 427.131 472.156 455.112 472.156 455.112L505.795 422.869C505.795 422.869 490.384 404.652 489.686 400.438C488.988 396.224 486.17 347.173 486.17 340.166C486.17 333.159 472.156 316.327 472.156 316.327C472.156 316.327 466.401 308.08 463.595 294.065C460.79 280.05 447.943 274.283 440.912 274.982C433.881 275.68 414.677 277.787 406.971 283.41C399.266 289.032 392.246 296.027 399.266 298.134C410.908 301.626 429.955 286.094 439.142 296.834C443.356 301.734 448.329 323.322 449.027 326.176C449.027 326.176 445.523 339.492 435.711 341.587" fill="white"/>
<path d="M435.711 341.611L416.784 345.825L427.993 390.674C427.993 390.674 437.818 410.299 440.611 418.715C443.404 427.131 472.156 455.112 472.156 455.112L505.795 422.869C505.795 422.869 490.384 404.652 489.686 400.438C488.988 396.224 486.17 347.173 486.17 340.166C486.17 333.159 472.156 316.327 472.156 316.327C472.156 316.327 466.401 308.08 463.595 294.065C460.79 280.05 447.943 274.283 440.912 274.982C433.881 275.68 414.677 277.787 406.971 283.41C399.266 289.032 392.246 296.027 399.266 298.134C410.908 301.626 429.955 286.094 439.142 296.834C443.356 301.734 448.329 323.322 449.027 326.176C449.027 326.176 445.523 339.492 435.711 341.587" stroke="#263238" stroke-width="1.204" stroke-miterlimit="10" stroke-linecap="round"/>
<path d="M365.133 276.462C365.347 276.238 365.635 276.097 365.944 276.066C366.253 276.035 366.563 276.116 366.818 276.294L369.684 278.28C369.967 278.48 370.159 278.782 370.22 279.123C370.281 279.463 370.205 279.814 370.009 280.099C369.812 280.381 369.511 280.573 369.173 280.634C368.834 280.695 368.486 280.619 368.203 280.424L365.337 278.425C365.055 278.228 364.863 277.928 364.802 277.589C364.741 277.251 364.817 276.902 365.012 276.619C365.045 276.562 365.086 276.509 365.133 276.462Z" fill="#263238" stroke="#263238" stroke-width="1.204" stroke-miterlimit="10" stroke-linecap="round"/>
<path d="M368.422 278.774C368.909 278.254 369.566 277.927 370.274 277.854C370.983 277.781 371.693 277.967 372.275 278.377L381.257 283L469.438 341.009C470.19 341.531 470.831 342.197 471.326 342.967C471.821 343.738 472.159 344.598 472.321 345.499C472.483 346.4 472.466 347.325 472.271 348.219C472.076 349.114 471.706 349.961 471.184 350.713C470.661 351.465 469.996 352.106 469.225 352.601C468.455 353.096 467.594 353.434 466.693 353.596C465.792 353.758 464.868 353.741 463.973 353.546C463.079 353.351 462.231 352.981 461.48 352.459L375.899 289.321L368.904 283.301C368.583 283.078 368.309 282.794 368.097 282.466C367.886 282.137 367.741 281.77 367.672 281.385C367.603 281 367.61 280.606 367.693 280.224C367.777 279.842 367.934 279.48 368.157 279.159C368.233 279.023 368.322 278.894 368.422 278.774Z" fill="#F5C518" stroke="#263238" stroke-width="1.204" stroke-miterlimit="10" stroke-linecap="round"/>
<path d="M469.447 341.009L443.994 324.273C442.03 324.843 440.298 326.022 439.049 327.641C437.8 329.261 437.099 331.235 437.047 333.279C437.049 333.683 437.081 334.085 437.143 334.483L461.488 352.447C463.006 353.502 464.882 353.911 466.702 353.584C468.522 353.257 470.137 352.22 471.192 350.701C472.248 349.183 472.657 347.307 472.329 345.488C472.002 343.668 470.965 342.052 469.447 340.997V341.009Z" fill="#263238" stroke="#263238" stroke-width="1.204" stroke-miterlimit="10" stroke-linecap="round"/>
<path d="M440.66 418.715C432.955 407.506 423.142 378.766 418.988 373.156C414.834 367.545 403.505 355.096 399.303 342.526C395.101 329.956 392.344 319.891 392.344 309.368C392.344 298.845 401.386 297.039 408.393 308.26C415.4 319.481 423.804 336.711 423.804 336.711C423.804 336.711 429.415 343.718 440.66 341.611" fill="white"/>
<path d="M440.66 418.715C432.955 407.506 423.142 378.766 418.988 373.156C414.834 367.545 403.505 355.096 399.303 342.526C395.101 329.956 392.344 319.891 392.344 309.368C392.344 298.845 401.386 297.039 408.393 308.26C415.4 319.481 423.804 336.711 423.804 336.711C423.804 336.711 429.415 343.718 440.66 341.611" stroke="#263238" stroke-width="1.204" stroke-miterlimit="10" stroke-linecap="round"/>
<path d="M401.043 304.985L403.451 309.669C403.451 309.669 402.921 309.669 399.176 311.8C396.942 313.074 395.066 314.892 393.722 317.085C393.722 317.085 390.11 306.996 393.301 303.841C394.076 303.023 395.101 302.485 396.215 302.312C397.196 302.209 398.186 302.411 399.049 302.889C399.913 303.367 400.609 304.099 401.043 304.985Z" fill="white" stroke="#263238" stroke-width="1.204" stroke-miterlimit="10" stroke-linecap="round"/>
<path d="M498.456 408.589C498.456 408.589 479.902 414.08 470.27 423.712C463.891 430.212 457.92 437.1 452.391 444.336L469.584 464.274C469.584 464.274 484.032 447.768 493.664 440.194C500.224 435.156 507.114 430.563 514.288 426.445L498.456 408.589Z" fill="white" stroke="#263238" stroke-width="1.204" stroke-miterlimit="10" stroke-linecap="round"/>
<path d="M515.687 553.647L461.375 466.333C461.375 466.333 475.125 445.709 486.815 435.402C498.506 425.096 513.629 422.339 513.629 422.339L581.534 487.511" fill="#263238"/>
<path d="M515.687 553.647L461.375 466.333C461.375 466.333 475.125 445.709 486.815 435.402C498.506 425.096 513.629 422.339 513.629 422.339L581.534 487.511" stroke="#263238" stroke-width="1.204" stroke-miterlimit="10" stroke-linecap="round"/>
<path d="M411.047 330.486L412.251 330.366" stroke="#263238" stroke-width="1.204" stroke-miterlimit="10" stroke-linecap="round"/>
<path d="M400.555 336.313C400.555 336.313 401.193 332.472 408.91 330.859" stroke="#263238" stroke-width="1.204" stroke-miterlimit="10" stroke-linecap="round"/>
<path d="M408.932 333.604C408.932 333.604 408.39 335.23 402.984 337.397" stroke="#263238" stroke-width="1.204" stroke-miterlimit="10" stroke-linecap="round"/>
<path d="M408.716 328.463C406.011 328.888 403.44 329.93 401.203 331.509" stroke="#263238" stroke-width="1.204" stroke-miterlimit="10" stroke-linecap="round"/>
<path d="M239.306 208.714C239.306 208.714 250.672 209.641 257.872 212.037C265.072 214.433 272.151 214.445 270.839 208.16C270.056 204.367 265.12 201.947 265.12 201.947C265.12 201.947 271.513 206.763 277.907 203.548C284.3 200.334 272.621 189.907 272.621 189.907C272.621 189.907 285.6 194.025 285.66 189.534C285.72 185.043 279.761 180.805 277.606 178.036C275.45 175.266 255.849 168.319 253.261 165.008C250.672 161.697 252.707 149.453 258.245 145.142C263.784 140.832 256.343 132.44 238.391 144.649C220.44 156.857 209.495 172.497 210.591 183.177C211.687 193.856 239.306 208.714 239.306 208.714Z" fill="white" stroke="#263238" stroke-width="1.204" stroke-miterlimit="10" stroke-linecap="round"/>
<path d="M260.7 197.456L235.271 181.804C235.271 181.804 225.639 173.749 231.659 157.88" stroke="#263238" stroke-width="1.204" stroke-miterlimit="10" stroke-linecap="round"/>
<path d="M264.329 188.366L245.523 171.028C245.523 171.028 238.082 162.6 244.319 148.899" stroke="#263238" stroke-width="1.204" stroke-miterlimit="10" stroke-linecap="round"/>
<path d="M258.679 153.691L273.608 166.056L302.203 129.659C302.203 129.659 320.624 121.387 325.477 114.007C330.329 106.626 334.458 66.6536 334.458 66.6536L288.237 60.2002C288.237 60.2002 283.529 83.606 280.664 86.7725C277.798 89.939 232.118 110.407 226.592 114.717C221.066 119.028 216.382 140.411 216.382 140.411C213.918 149.104 210.695 157.565 206.75 165.695C196.215 187.03 198.093 185.392 202.945 190.497C207.798 195.602 219.609 205.981 228.771 208.629C237.934 211.278 249.324 220.742 246.771 209.171C244.146 197.312 218.429 192.315 221.258 178.493C222.547 172.16 236.573 154.955 238.355 152.679C238.355 152.679 251.009 147.273 258.703 153.727" fill="white"/>
<path d="M258.679 153.691L273.608 166.056L302.203 129.659C302.203 129.659 320.624 121.387 325.477 114.007C330.329 106.626 334.458 66.6536 334.458 66.6536L288.237 60.2002C288.237 60.2002 283.529 83.606 280.664 86.7725C277.798 89.939 232.118 110.407 226.592 114.717C221.066 119.028 216.382 140.411 216.382 140.411C213.918 149.104 210.695 157.565 206.75 165.695C196.215 187.03 198.093 185.392 202.945 190.497C207.798 195.602 219.609 205.981 228.771 208.629C237.934 211.278 249.324 220.742 246.771 209.171C244.146 197.312 218.429 192.315 221.258 178.493C222.547 172.16 236.573 154.955 238.355 152.679C238.355 152.679 251.009 147.273 258.703 153.727" stroke="#263238" stroke-width="1.204" stroke-miterlimit="10" stroke-linecap="round"/>
<path d="M250.576 249.409C250.264 249.386 249.971 249.252 249.75 249.031C249.528 248.81 249.394 248.517 249.372 248.205L249.191 244.713C249.167 244.535 249.18 244.355 249.23 244.182C249.279 244.01 249.363 243.849 249.477 243.711C249.592 243.573 249.733 243.46 249.893 243.379C250.053 243.298 250.228 243.251 250.408 243.241C250.587 243.231 250.766 243.258 250.934 243.321C251.102 243.383 251.255 243.48 251.384 243.605C251.513 243.729 251.615 243.879 251.683 244.045C251.751 244.211 251.784 244.389 251.78 244.569L251.973 248.06C251.993 248.401 251.877 248.737 251.652 248.993C251.427 249.25 251.109 249.408 250.769 249.433L250.576 249.409Z" fill="#263238" stroke="#263238" stroke-width="1.204" stroke-miterlimit="10" stroke-linecap="round"/>
<path d="M250.432 245.375C249.723 245.312 249.06 244.995 248.567 244.481C248.073 243.968 247.782 243.293 247.747 242.582L245.893 232.649L237.549 127.431C237.45 125.584 238.089 123.773 239.325 122.397C240.561 121.021 242.294 120.192 244.141 120.093C245.988 119.994 247.799 120.633 249.175 121.869C250.552 123.105 251.38 124.838 251.479 126.685L254.176 233.01L253.671 242.269C253.692 242.658 253.636 243.047 253.506 243.415C253.377 243.782 253.176 244.121 252.915 244.41C252.654 244.7 252.339 244.935 251.988 245.103C251.636 245.271 251.254 245.367 250.865 245.387C250.721 245.395 250.576 245.391 250.432 245.375Z" fill="#F5C518" stroke="#263238" stroke-width="1.204" stroke-miterlimit="10" stroke-linecap="round"/>
<path d="M237.494 127.431L239.902 157.796C241.553 159.004 243.546 159.655 245.591 159.655C247.637 159.655 249.629 159.004 251.28 157.796C251.601 157.545 251.902 157.272 252.183 156.977L251.425 126.733C251.326 124.885 250.497 123.153 249.121 121.917C247.744 120.681 245.934 120.042 244.086 120.141C242.239 120.24 240.507 121.069 239.271 122.445C238.034 123.821 237.395 125.632 237.494 127.479V127.431Z" fill="#263238" stroke="#263238" stroke-width="1.204" stroke-miterlimit="10" stroke-linecap="round"/>
<path d="M325.417 113.958C321.468 126.974 304.034 144.865 301 151.174C294.196 165.469 286.324 179.229 277.449 192.339C274.451 196.83 271.213 197.468 269.238 199.081C266.348 201.489 264.868 203.957 259.931 207.786C251.636 214.24 244.652 208.232 249.203 195.818C253.755 183.405 262.11 166.152 262.11 166.152C262.11 166.152 264.205 157.423 255.669 149.862" fill="white"/>
<path d="M325.417 113.958C321.468 126.974 304.034 144.865 301 151.174C294.196 165.469 286.324 179.229 277.449 192.339C274.451 196.83 271.213 197.468 269.238 199.081C266.348 201.489 264.868 203.957 259.931 207.786C251.636 214.24 244.652 208.232 249.203 195.818C253.755 183.405 262.11 166.152 262.11 166.152C262.11 166.152 264.205 157.423 255.669 149.862" stroke="#263238" stroke-width="1.204" stroke-miterlimit="10" stroke-linecap="round"/>
<path d="M251.041 203.548L253.304 198.829C253.304 198.829 253.629 199.25 257.614 200.887C259.989 201.869 262.574 202.233 265.127 201.947C265.127 201.947 259.384 211.001 254.893 210.435C253.774 210.329 252.722 209.85 251.908 209.075C251.206 208.358 250.745 207.441 250.589 206.45C250.434 205.46 250.592 204.445 251.041 203.548Z" fill="white" stroke="#263238" stroke-width="1.204" stroke-miterlimit="10" stroke-linecap="round"/>
<path d="M284.337 22.4787L274.766 84.6412C274.766 84.6412 286.312 94.7909 301.651 97.524C316.99 100.257 344.995 104.399 344.995 104.399L369.508 22.4546" fill="#263238"/>
<path d="M284.337 22.4787L274.766 84.6412C274.766 84.6412 286.312 94.7909 301.651 97.524C316.99 100.257 344.995 104.399 344.995 104.399L369.508 22.4546" stroke="#263238" stroke-width="1.204" stroke-miterlimit="10" stroke-linecap="round"/>
<path d="M340.057 90.5047C340.057 91.4405 339.78 92.3554 339.26 93.1335C338.74 93.9116 338.001 94.5181 337.136 94.8762C336.272 95.2343 335.32 95.328 334.402 95.1455C333.484 94.9629 332.641 94.5122 331.98 93.8505C331.318 93.1888 330.867 92.3457 330.685 91.4278C330.502 90.5099 330.596 89.5585 330.954 88.6939C331.312 87.8293 331.919 87.0903 332.697 86.5704C333.475 86.0505 334.39 85.7729 335.325 85.7729C336.58 85.7729 337.784 86.2715 338.671 87.1588C339.559 88.0462 340.057 89.2497 340.057 90.5047Z" fill="white" stroke="#263238" stroke-width="2.408" stroke-linecap="round" stroke-linejoin="round"/>
<path d="M261.518 188.197L260.711 187.378" stroke="#263238" stroke-width="1.204" stroke-miterlimit="10" stroke-linecap="round"/>
<path d="M272.552 192.905C272.552 192.905 269.133 194.759 263.125 189.666" stroke="#263238" stroke-width="1.204" stroke-miterlimit="10" stroke-linecap="round"/>
<path d="M265.266 187.944C265.266 187.944 266.879 187.378 271.912 190.352" stroke="#263238" stroke-width="1.204" stroke-miterlimit="10" stroke-linecap="round"/>
<path d="M261.352 191.292C263.347 193.158 265.744 194.542 268.359 195.337" stroke="#263238" stroke-width="1.204" stroke-miterlimit="10" stroke-linecap="round"/>
<path d="M264.813 393.913C264.813 393.913 265.908 405.267 268.425 412.431C270.941 419.594 271.086 426.674 264.741 425.458C260.936 424.723 258.444 419.835 258.444 419.835C258.444 419.835 263.344 426.156 260.238 432.586C257.131 439.015 246.512 427.505 246.512 427.505C246.512 427.505 250.822 440.412 246.343 440.544C241.865 440.676 237.518 434.777 234.725 432.67C231.932 430.563 224.683 410.998 221.324 408.518C217.965 406.037 205.769 408.193 201.555 413.791C197.341 419.39 188.792 412.081 200.76 393.889C212.728 375.697 228.175 364.511 238.818 365.523C249.462 366.534 264.813 393.913 264.813 393.913Z" fill="white" stroke="#263238" stroke-width="1.204" stroke-miterlimit="10" stroke-linecap="round"/>
<path d="M253.818 415.477L237.781 390.277C237.781 390.277 229.581 380.753 213.797 387.05" stroke="#263238" stroke-width="1.204" stroke-miterlimit="10" stroke-linecap="round"/>
<path d="M244.834 419.233L227.22 400.68C227.22 400.68 218.683 393.371 205.078 399.789" stroke="#263238" stroke-width="1.204" stroke-miterlimit="10" stroke-linecap="round"/>
<path d="M210.088 414.092L222.658 428.853L186.695 457.918C186.695 457.918 167.045 467.67 159.749 472.703C152.453 477.736 112.613 482.804 112.613 482.804L105.172 436.812C105.172 436.812 128.457 431.55 131.539 428.612C134.622 425.675 166.455 388.194 170.633 382.596C174.811 376.997 196.182 372 196.182 372C196.182 372 205.742 368.882 216.421 359.382C227.101 349.883 240.839 353.025 246.016 357.805C251.193 362.585 265.28 375.865 268.061 384.943C270.842 394.022 272.215 403.882 265.352 401.342C253.95 397.116 248.087 373.265 234.289 376.287C227.98 377.671 210.979 391.939 208.74 393.769C208.74 393.769 203.515 406.507 210.088 414.092Z" fill="white" stroke="#263238" stroke-width="1.204" stroke-miterlimit="10" stroke-linecap="round"/>
<path d="M305.67 404.545C305.648 404.233 305.514 403.94 305.292 403.718C305.071 403.497 304.778 403.363 304.466 403.341L300.974 403.208C300.804 403.202 300.633 403.229 300.473 403.289C300.313 403.348 300.166 403.439 300.041 403.555C299.916 403.671 299.814 403.811 299.743 403.967C299.672 404.122 299.632 404.29 299.626 404.461C299.62 404.631 299.647 404.802 299.706 404.962C299.766 405.122 299.856 405.269 299.973 405.394C300.089 405.519 300.229 405.62 300.384 405.692C300.539 405.763 300.707 405.803 300.878 405.809L304.37 405.941C304.706 405.952 305.033 405.833 305.284 405.609C305.535 405.385 305.691 405.073 305.718 404.737C305.709 404.672 305.693 404.607 305.67 404.545Z" fill="#263238" stroke="#263238" stroke-width="1.204" stroke-miterlimit="10" stroke-linecap="round"/>
<path d="M301.637 404.436C301.56 403.727 301.23 403.07 300.709 402.584C300.187 402.098 299.508 401.815 298.796 401.787L288.839 400.078L183.513 393.299C182.597 393.264 181.684 393.409 180.825 393.726C179.965 394.044 179.177 394.527 178.504 395.149C177.832 395.772 177.288 396.52 176.905 397.352C176.522 398.185 176.306 399.084 176.271 399.999C176.235 400.915 176.38 401.828 176.698 402.688C177.015 403.547 177.499 404.336 178.121 405.008C178.743 405.681 179.492 406.224 180.324 406.607C181.156 406.99 182.056 407.206 182.971 407.242L289.32 408.349L298.567 407.723C299.354 407.752 300.12 407.468 300.698 406.934C301.276 406.399 301.618 405.656 301.649 404.87C301.657 404.725 301.653 404.58 301.637 404.436Z" fill="#F5C518" stroke="#263238" stroke-width="1.204" stroke-miterlimit="10" stroke-linecap="round"/>
<path d="M183.524 393.299L213.913 395.262C215.14 396.898 215.815 398.883 215.839 400.929C215.862 402.975 215.234 404.975 214.045 406.64C213.792 406.958 213.523 407.264 213.238 407.555L183.018 407.242C182.103 407.206 181.203 406.99 180.371 406.607C179.539 406.224 178.79 405.681 178.168 405.008C177.546 404.336 177.062 403.547 176.745 402.688C176.427 401.828 176.282 400.915 176.318 399.999C176.353 399.084 176.569 398.185 176.952 397.352C177.335 396.52 177.879 395.772 178.551 395.149C179.224 394.527 180.012 394.044 180.871 393.726C181.731 393.409 182.644 393.264 183.56 393.299H183.524Z" fill="#263238" stroke="#263238" stroke-width="1.204" stroke-miterlimit="10" stroke-linecap="round"/>
<path d="M159.75 472.703C172.657 468.393 197.796 451.356 204.527 449.406C211.257 447.455 227.728 444.349 238.684 436.812C249.641 429.275 257.864 422.918 264.197 414.514C270.53 406.11 264.414 399.235 252.061 403.967C239.708 408.699 222.551 417.355 222.551 417.355C222.551 417.355 213.858 419.571 206.164 411.143" fill="white"/>
<path d="M159.75 472.703C172.657 468.393 197.796 451.356 204.527 449.406C211.257 447.455 227.728 444.349 238.684 436.812C249.641 429.275 257.864 422.918 264.197 414.514C270.53 406.11 264.414 399.235 252.061 403.967C239.708 408.699 222.551 417.355 222.551 417.355C222.551 417.355 213.858 419.571 206.164 411.143" stroke="#263238" stroke-width="1.204" stroke-miterlimit="10" stroke-linecap="round"/>
<path d="M259.828 405.749L255.133 408.073C255.133 408.073 255.566 408.398 257.264 412.347C258.293 414.709 258.708 417.294 258.468 419.86C258.468 419.86 267.438 413.984 266.8 409.493C266.676 408.375 266.185 407.329 265.403 406.52C264.672 405.823 263.74 405.374 262.74 405.235C261.74 405.097 260.721 405.277 259.828 405.749Z" fill="white" stroke="#263238" stroke-width="1.204" stroke-miterlimit="10" stroke-linecap="round"/>
<path d="M129.047 426.903C129.047 426.903 140.557 442.471 142.447 455.955C143.627 464.983 144.246 474.074 144.302 483.178L109.157 491.606C109.157 491.606 107.568 469.741 104.437 457.894C102.233 449.922 99.4978 442.107 96.25 434.5L129.047 426.903Z" fill="white" stroke="#263238" stroke-width="1.204" stroke-miterlimit="10" stroke-linecap="round"/>
<path d="M130.651 454.065C127.52 438.798 117.106 427.493 117.106 427.493L33.9453 440.737V534.649L132.336 494.062C132.336 494.062 133.769 469.332 130.651 454.065Z" fill="#263238" stroke="#263238" stroke-width="1.204" stroke-miterlimit="10" stroke-linecap="round"/>
<path d="M108.368 494.844C108.382 495.579 108.176 496.301 107.777 496.918C107.378 497.535 106.803 498.018 106.127 498.306C105.451 498.593 104.704 498.672 103.983 498.533C103.262 498.393 102.599 498.04 102.079 497.521C101.56 497.001 101.207 496.338 101.067 495.617C100.928 494.896 101.007 494.149 101.294 493.473C101.582 492.797 102.065 492.222 102.682 491.823C103.299 491.424 104.021 491.218 104.756 491.232C105.708 491.251 106.616 491.637 107.289 492.311C107.963 492.984 108.349 493.892 108.368 494.844Z" fill="white"/>
<path d="M118.697 490.462C118.694 491.19 118.476 491.901 118.07 492.505C117.664 493.11 117.087 493.58 116.414 493.857C115.741 494.134 115 494.205 114.286 494.062C113.572 493.918 112.917 493.566 112.403 493.051C111.889 492.535 111.539 491.879 111.398 491.164C111.257 490.45 111.331 489.71 111.61 489.037C111.889 488.365 112.361 487.79 112.967 487.386C113.572 486.981 114.284 486.766 115.012 486.766C115.497 486.766 115.977 486.861 116.425 487.047C116.873 487.233 117.279 487.506 117.622 487.849C117.964 488.192 118.235 488.6 118.42 489.048C118.604 489.497 118.698 489.977 118.697 490.462Z" fill="white"/>
<path d="M236.475 420.064L235.656 419.269" stroke="#263238" stroke-width="1.204" stroke-miterlimit="10" stroke-linecap="round"/>
<path d="M241.344 431.032C241.344 431.032 243.15 427.577 237.961 421.641" stroke="#263238" stroke-width="1.204" stroke-miterlimit="10" stroke-linecap="round"/>
<path d="M236.29 423.808C236.29 423.808 235.736 425.433 238.758 430.418" stroke="#263238" stroke-width="1.204" stroke-miterlimit="10" stroke-linecap="round"/>
<path d="M239.594 419.847C241.496 421.816 242.917 424.198 243.748 426.806" stroke="#263238" stroke-width="1.204" stroke-miterlimit="10" stroke-linecap="round"/>
</svg>
