<svg width="28" height="28" viewBox="0 0 28 28" fill="none" xmlns="http://www.w3.org/2000/svg">
<path d="M23.7378 4.40645C22.4804 3.13733 20.9829 2.13116 19.3326 1.44658C17.6824 0.761999 15.9124 0.412698 14.1258 0.41903C6.63958 0.41903 0.538446 6.51845 0.531589 14.0064C0.531589 16.4047 1.15902 18.7379 2.34359 20.8036L0.421875 27.8476L7.62872 25.9584C9.62244 27.0434 11.856 27.6121 14.1258 27.6127H14.1327C21.6207 27.6127 27.7201 21.5133 27.727 14.0184C27.7287 12.2322 27.3769 10.4633 26.692 8.81366C26.0071 7.164 25.0042 5.66616 23.7378 4.40645ZM14.1258 25.3121C12.1013 25.3128 10.1139 24.768 8.37272 23.735L7.96129 23.4881L3.68587 24.6093L4.82758 20.4384L4.56015 20.0081C3.4284 18.2087 2.82984 16.1253 2.83387 13.9996C2.83387 7.78359 7.903 2.71274 14.1327 2.71274C15.6168 2.71008 17.0868 3.00121 18.4579 3.56935C19.829 4.1375 21.074 4.97141 22.1213 6.02302C23.1722 7.07053 24.0053 8.31574 24.5726 9.68684C25.1398 11.0579 25.43 12.5278 25.4264 14.0116C25.4195 20.2499 20.3504 25.3121 14.1258 25.3121ZM20.323 16.8539C19.9853 16.6841 18.3173 15.863 18.0036 15.7464C17.6916 15.635 17.4636 15.5767 17.2407 15.9161C17.0127 16.2539 16.3613 17.0236 16.1658 17.2447C15.9704 17.4727 15.7681 17.4984 15.4287 17.3304C15.091 17.159 13.9956 16.8024 12.6996 15.6419C11.6881 14.7419 11.011 13.6276 10.8087 13.2899C10.6133 12.9504 10.7899 12.7687 10.9596 12.599C11.1087 12.4482 11.2973 12.2013 11.467 12.0059C11.6384 11.8104 11.695 11.6664 11.8064 11.4402C11.9179 11.2104 11.8647 11.015 11.7807 10.8453C11.695 10.6756 11.0179 9.00073 10.7316 8.3253C10.4573 7.65844 10.1779 7.75102 9.96871 7.74244C9.77329 7.73044 9.54529 7.73044 9.31729 7.73044C9.14511 7.73472 8.97568 7.77455 8.81962 7.84741C8.66356 7.92028 8.52425 8.02461 8.41043 8.15387C8.09843 8.4933 7.22586 9.31444 7.22586 10.9893C7.22586 12.6642 8.443 14.2739 8.61443 14.5019C8.78243 14.7299 11.0041 18.1567 14.4138 19.631C15.2196 19.9824 15.8538 20.1899 16.3493 20.3476C17.1636 20.6081 17.899 20.5687 18.4853 20.4847C19.1367 20.3853 20.4927 19.6619 20.779 18.8681C21.0601 18.0727 21.0601 17.3939 20.9744 17.2516C20.8904 17.1076 20.6624 17.0236 20.323 16.8539Z" fill="#080808"/>
</svg>
