<svg width="32" height="22" viewBox="0 0 32 22" fill="none" xmlns="http://www.w3.org/2000/svg">
<path fill-rule="evenodd" clip-rule="evenodd" d="M28.856 3.51418C28.0885 2.19041 27.2569 1.94716 25.5617 1.85476C23.8683 1.7435 19.6085 1.69824 15.92 1.69824C12.224 1.69824 7.96234 1.7435 6.27086 1.85476C4.57938 1.94904 3.74589 2.19041 2.97086 3.51418C2.18075 4.83795 1.77344 7.114 1.77344 11.123V11.1381C1.77344 15.1302 2.18075 17.4232 2.97086 18.73C3.74401 20.0519 4.57749 20.2932 6.27086 20.4045C7.96234 20.4988 12.2222 20.5554 15.92 20.5554C19.6085 20.5554 23.8683 20.4988 25.5636 20.4045C27.2588 20.2932 28.0904 20.0519 28.8579 18.73C29.6574 17.4213 30.061 15.1283 30.061 11.1381V11.123C30.0591 7.114 29.6574 4.83795 28.856 3.51418Z" stroke="#080808" stroke-width="2.35348" stroke-miterlimit="10" stroke-linecap="round" stroke-linejoin="round"/>
<path fill-rule="evenodd" clip-rule="evenodd" d="M13.0859 15.8412V6.4126L20.6288 11.1269L13.0859 15.8412Z" stroke="#080808" stroke-width="2.35348" stroke-miterlimit="10" stroke-linecap="round" stroke-linejoin="round"/>
</svg>
