<svg width="18" height="19" viewBox="0 0 18 19" fill="none" xmlns="http://www.w3.org/2000/svg">
<path d="M0.266912 0.985438C0.206097 1.02598 0.118252 1.11383 0.0777086 1.17464L0 1.28952V4.9452V8.60088L0.0777086 8.71575C0.118252 8.77657 0.206097 8.86441 0.266912 8.90496L0.381786 8.98267H4.03747H7.69315L7.80802 8.90496C7.86884 8.86441 7.95668 8.77657 7.99723 8.71575L8.07494 8.60088V4.9452V1.28952L7.99723 1.17464C7.95668 1.11383 7.86884 1.02598 7.80802 0.985438L7.69315 0.907729H4.03747H0.381786L0.266912 0.985438ZM6.89241 4.9452V7.80014H4.03747H1.18252V4.9452V2.09025H4.03747H6.89241V4.9452Z" fill="#FEFEFE"/>
<path d="M9.48957 0.985682C9.42875 1.02623 9.34091 1.11407 9.30036 1.17489L9.22266 1.28976V4.94544V8.60112L9.30036 8.716C9.34091 8.77681 9.42875 8.86466 9.48957 8.9052L9.60444 8.98291H13.2601H16.9158L17.0307 8.9052C17.0915 8.86466 17.1793 8.77681 17.2199 8.716L17.2976 8.60112V4.94544V1.28976L17.2199 1.17489C17.1793 1.11407 17.0915 1.02623 17.0307 0.985682L16.9158 0.907973H13.2601H9.60444L9.48957 0.985682ZM16.1151 4.94544V7.80039H13.2601H10.4052V4.94544V2.0905H13.2601H16.1151V4.94544Z" fill="#FEFEFE"/>
<path d="M0.266912 10.2093C0.206097 10.2499 0.118252 10.3377 0.0777086 10.3985L0 10.5134V14.1691V17.8248L0.0777086 17.9396C0.118252 18.0004 0.206097 18.0883 0.266912 18.1288L0.381786 18.2065H4.03747H7.69315L7.80802 18.1288C7.86884 18.0883 7.95668 18.0004 7.99723 17.9396L8.07494 17.8248V14.1691V10.5134L7.99723 10.3985C7.95668 10.3377 7.86884 10.2499 7.80802 10.2093L7.69315 10.1316H4.03747H0.381786L0.266912 10.2093ZM6.89241 14.1691V17.024H4.03747H1.18252V14.1691V11.3141H4.03747H6.89241V14.1691Z" fill="#FEFEFE"/>
<path d="M9.48957 10.2093C9.42875 10.2499 9.34091 10.3377 9.30036 10.3985L9.22266 10.5134V14.1691V17.8248L9.30036 17.9396C9.34091 18.0004 9.42875 18.0883 9.48957 18.1288L9.60444 18.2065H13.2601H16.9158L17.0307 18.1288C17.0915 18.0883 17.1793 18.0004 17.2199 17.9396L17.2976 17.8248V14.1691V10.5134L17.2199 10.3985C17.1793 10.3377 17.0915 10.2499 17.0307 10.2093L16.9158 10.1316H13.2601H9.60444L9.48957 10.2093ZM16.1151 14.1691V17.024H13.2601H10.4052V14.1691V11.3141H13.2601H16.1151V14.1691Z" fill="#FEFEFE"/>
</svg>
