<svg width="21" height="24" viewBox="0 0 21 24" fill="none" xmlns="http://www.w3.org/2000/svg">
<path fill-rule="evenodd" clip-rule="evenodd" d="M10.5019 0C10.1041 0 9.72254 0.158036 9.44124 0.43934C9.15993 0.720645 9.0019 1.10218 9.0019 1.5L9.0019 18.879L2.5639 12.438C2.28224 12.1563 1.90022 11.9981 1.5019 11.9981C1.10357 11.9981 0.721555 12.1563 0.439895 12.438C0.158235 12.7197 0 13.1017 0 13.5C0 13.8983 0.158235 14.2803 0.439895 14.562L9.4399 23.562C9.57923 23.7017 9.74476 23.8125 9.92699 23.8881C10.1092 23.9638 10.3046 24.0027 10.5019 24.0027C10.6992 24.0027 10.8946 23.9638 11.0768 23.8881C11.259 23.8125 11.4246 23.7017 11.5639 23.562L20.5639 14.562C20.8456 14.2803 21.0038 13.8983 21.0038 13.5C21.0038 13.1017 20.8456 12.7197 20.5639 12.438C20.2822 12.1563 19.9002 11.9981 19.5019 11.9981C19.1036 11.9981 18.7216 12.1563 18.4399 12.438L12.0019 18.879L12.0019 1.5C12.0019 1.10218 11.8439 0.720645 11.5626 0.43934C11.2813 0.158036 10.8997 0 10.5019 0Z" fill="#080808"/>
</svg>
